<svg width="604" height="577" viewBox="0 0 604 577" fill="none" xmlns="http://www.w3.org/2000/svg">
<g opacity="0.1">
<path d="M82.2944 263.02C82.0647 260.579 81.5192 258.167 81.1172 255.741C79.5092 249.998 77.9443 244.255 74.9293 239.001C74.1127 237.561 73.1505 236.209 72.0579 234.966C68.6409 231.162 64.5492 230.659 60.1847 233.272C57.0131 235.29 54.3344 237.993 52.3457 241.183C47.8089 248.031 44.6935 255.468 45.2677 263.81C45.414 267.86 46.5197 271.817 48.494 275.356C50.4684 278.896 53.2548 281.916 56.6241 284.168C64.6353 289.595 74.0679 287.355 79.0067 279.028C81.8054 274.188 82.959 268.571 82.2944 263.02Z" fill="#F94A29"/>
<path d="M124.777 269.194C129.472 260.579 129.658 251.621 124.777 243.006C120.315 234.966 113.086 228.818 104.433 225.706C102.875 225.143 101.247 224.8 99.5946 224.687C97.6259 224.381 95.6133 224.803 93.9328 225.873C92.2524 226.943 91.0191 228.588 90.4635 230.501C89.0648 234.746 88.6475 239.252 89.2432 243.681C89.5303 247.026 90.0328 250.357 90.4348 253.731C91.5259 259.847 93.4641 265.576 97.6133 270.356C100.155 273.459 103.572 275.725 107.419 276.86C110.753 277.792 114.306 277.537 117.472 276.139C120.639 274.74 123.221 272.285 124.777 269.194Z" fill="#F94A29"/>
<path d="M150.304 300.994C157.913 295.409 160.985 287.657 160.196 278.325C160.036 277.255 159.816 276.196 159.535 275.152C158.357 268.91 155.36 263.156 150.921 258.612C150.49 258.196 150.016 257.78 149.485 257.406C144.633 253.688 139.995 254.147 135.99 258.842C133.187 262.311 131.103 266.303 129.859 270.586C128.036 276.128 126.471 281.727 127.203 287.685C127.557 291.3 128.838 294.761 130.922 297.735C135.674 304.196 143.742 305.703 150.304 300.994Z" fill="#F94A29"/>
<path d="M55.4037 339.672C55.4899 340.562 55.6478 341.452 55.8201 342.615C57.9736 351.158 63.8456 356.139 72.4598 358.006C81.5622 359.973 90.0759 357.92 97.9722 353.354C102.998 350.342 108.879 349.08 114.698 349.765C123.643 350.727 132.099 349.176 139.579 343.95C145.853 339.572 149.629 333.642 149.255 325.731C149.106 322.786 148.359 319.903 147.058 317.257C145.757 314.61 143.93 312.257 141.689 310.341C139.187 308.117 136.436 306.19 133.491 304.598C127.06 301.162 121.24 296.69 116.263 291.361C113.904 288.781 111.043 286.71 107.854 285.275C104.666 283.841 101.218 283.073 97.7229 283.02C94.2273 282.966 90.7576 283.627 87.5267 284.963C84.2959 286.298 81.3721 288.28 78.9349 290.786C75.7256 294.002 73.4439 298.025 72.3306 302.43C70.9046 308.245 68.0131 313.598 63.9318 317.979C58.7406 323.224 55.6725 330.204 55.3176 337.576C55.2974 338.276 55.3262 338.976 55.4037 339.672Z" fill="#F94A29"/>
<path d="M26.417 302.703C28.7284 312.925 34.1698 319.414 43.2003 322.558C52.2309 325.703 60.7589 320.749 62.1946 311.303C62.6873 308.014 62.377 304.654 61.2901 301.511C58.792 294.031 53.6666 288.418 47.9812 283.278C45.9294 281.463 43.6399 279.937 41.176 278.741C36.0936 276.257 31.6716 277.793 28.9151 282.718C26.6802 287.021 25.6438 291.846 25.9145 296.687C26.015 299.013 26.3021 301.31 26.417 302.703Z" fill="#F94A29"/>
<path d="M238.168 57.2842C238.01 53.537 237.379 49.8042 236.977 46.0713C234.995 37.1413 233.1 28.1969 228.922 19.9703C227.795 17.7078 226.438 15.5669 224.874 13.5814C219.978 7.49407 213.776 6.3168 206.899 9.99219C201.885 12.8066 197.563 16.7063 194.25 21.406C186.756 31.4559 181.329 42.5826 181.53 55.3747C181.731 68.1668 186.684 79.4227 197.179 87.4195C208.938 96.3783 223.539 93.7366 231.794 81.4326C236.478 74.2859 238.715 65.8116 238.168 57.2842Z" fill="#F94A29"/>
<path d="M302.502 70.2772C310.413 57.4564 311.447 43.846 304.814 30.2929C298.667 17.6408 288.145 7.64394 275.195 2.15322C272.865 1.16755 270.411 0.505761 267.902 0.186311C261.068 -0.775609 256.244 1.99529 253.444 8.31237C250.645 14.6295 250.286 21.5065 250.487 28.4122C250.63 33.5376 251.133 38.6631 251.463 43.7885C252.612 53.2211 255.081 62.1224 261.01 69.7747C264.608 74.7194 269.611 78.4664 275.367 80.5281C280.377 82.2373 285.825 82.149 290.777 80.2784C295.728 78.4078 299.874 74.8717 302.502 70.2772Z" fill="#F94A29"/>
<path d="M338.825 120.871C350.914 112.989 356.226 101.432 355.824 87.0749C355.688 85.4873 355.453 83.9097 355.121 82.3514C353.541 72.603 349.995 63.6873 343.262 56.3078C342.631 55.6128 341.96 54.956 341.252 54.3409C334.145 48.2535 327.038 48.5981 320.535 55.3315C315.969 60.3861 312.451 66.2954 310.183 72.7179C306.938 81.0306 304.067 89.4438 304.684 98.5605C304.939 104.081 306.605 109.444 309.523 114.138C316.199 124.662 328.445 127.633 338.825 120.871Z" fill="#F94A29"/>
<path d="M190.632 172.068C190.632 173.504 190.862 174.811 191.02 176.605C193.604 189.814 202.161 197.94 215.154 201.5C228.879 205.276 242.059 202.85 254.507 196.533C262.438 192.367 271.523 190.939 280.349 192.47C293.917 194.695 306.967 193.03 318.826 185.693C328.775 179.52 334.963 170.776 335.136 158.688C335.166 154.175 334.27 149.703 332.505 145.55C330.739 141.397 328.141 137.649 324.87 134.539C321.244 130.913 317.206 127.723 312.839 125.035C303.287 119.245 294.751 111.926 287.571 103.37C284.188 99.2168 279.99 95.8008 275.235 93.3327C270.481 90.8647 265.271 89.3971 259.928 89.0204C254.584 88.6438 249.22 89.366 244.167 91.1426C239.113 92.9192 234.477 95.7125 230.545 99.3502C225.412 103.997 221.64 109.952 219.634 116.579C216.951 125.314 212.084 133.221 205.492 139.55C197.265 147.547 191.767 157.051 190.733 168.738C190.624 169.844 190.591 170.957 190.632 172.068Z" fill="#F94A29"/>
<path d="M149.485 113.176C152.156 128.969 159.923 139.349 173.447 144.919C187.273 150.662 200.41 143.627 203.41 129.328C204.432 124.34 204.24 119.18 202.85 114.281C199.649 102.652 192.298 93.6504 184.043 85.3377C181.053 82.3853 177.671 79.8586 173.993 77.829C166.441 73.6081 159.636 75.575 154.941 82.8827C150.878 89.3003 149.457 96.5218 149.198 103.973C149.098 107.505 149.485 111.037 149.485 113.176Z" fill="#F94A29"/>
<path d="M532.458 208.952C533.664 206.812 534.598 204.515 535.646 202.29C537.613 196.648 539.622 191.02 540.125 185.061C540.297 183.42 540.297 181.764 540.125 180.123C539.493 175.055 536.45 172.269 531.353 171.954C527.598 171.802 523.856 172.489 520.398 173.964C512.775 177.022 505.955 181.343 501.663 188.522C499.481 191.935 498.137 195.817 497.741 199.848C497.344 203.88 497.906 207.949 499.38 211.722C502.854 220.739 511.885 224.285 520.7 220.265C525.746 217.873 529.874 213.901 532.458 208.952Z" fill="#F94A29"/>
<path d="M563.828 238.254C572.629 233.832 577.855 226.611 578.817 216.719C579.745 207.561 577.317 198.378 571.983 190.876C571.026 189.528 569.885 188.32 568.595 187.287C567.153 185.909 565.259 185.103 563.266 185.021C561.274 184.939 559.319 185.586 557.77 186.842C554.196 189.527 551.284 192.994 549.256 196.978C547.576 199.849 546.097 202.907 544.518 205.879C541.92 211.521 540.211 217.365 540.915 223.61C541.224 227.601 542.724 231.407 545.222 234.536C547.41 237.218 550.463 239.056 553.858 239.735C557.252 240.413 560.777 239.89 563.828 238.254Z" fill="#F94A29"/>
<path d="M566.685 278.87C576.118 278.64 583.067 274.018 587.733 265.949C588.197 265.015 588.609 264.057 588.967 263.077C591.556 257.254 592.365 250.796 591.293 244.514C591.181 243.907 591.032 243.308 590.848 242.719C588.982 236.976 584.919 234.636 578.989 236.172C574.721 237.416 570.74 239.49 567.274 242.274C562.622 245.792 558.143 249.453 555.343 254.793C553.588 257.949 552.678 261.505 552.702 265.116C552.788 273.214 558.66 279.086 566.685 278.87Z" fill="#F94A29"/>
<path d="M466.631 256.488C466.186 257.277 465.828 258.096 465.296 259.144C462.195 267.385 464.176 274.836 470.178 281.282C476.523 288.087 484.693 291.26 493.795 292.021C499.644 292.42 505.196 294.742 509.588 298.625C516.364 304.512 524.203 308.072 533.334 308.044C540.986 308.044 547.433 305.287 551.668 298.611C553.235 296.111 554.271 293.317 554.714 290.4C555.156 287.483 554.994 284.507 554.238 281.655C553.466 278.388 552.314 275.223 550.807 272.223C547.475 265.727 545.235 258.728 544.174 251.506C543.716 248.033 542.551 244.691 540.751 241.686C538.951 238.681 536.555 236.077 533.709 234.035C530.864 231.993 527.63 230.555 524.207 229.812C520.784 229.068 517.245 229.034 513.809 229.712C509.354 230.529 505.209 232.55 501.821 235.555C497.32 239.511 491.884 242.254 486.028 243.523C478.78 244.878 472.287 248.861 467.794 254.707C467.372 255.277 466.984 255.872 466.631 256.488Z" fill="#F94A29"/>
<path d="M463.904 209.641C459.97 219.36 460.731 227.788 466.344 235.483C471.958 243.179 481.807 244.011 488.368 237.077C490.666 234.646 492.332 231.688 493.221 228.463C495.432 220.882 494.427 213.359 492.689 205.893C492.042 203.232 491.033 200.671 489.689 198.284C486.932 193.345 482.438 192.082 477.356 194.551C473.059 196.809 469.452 200.187 466.919 204.328C465.655 206.338 464.621 208.42 463.904 209.641Z" fill="#F94A29"/>
</g>
<path d="M13.7397 576.218L87.5203 575.859L161.301 575.744L308.848 575.5L456.395 575.73L530.175 575.859L603.956 576.218L530.175 576.563L456.395 576.692L308.848 576.936L161.301 576.692L87.5203 576.563L13.7397 576.218Z" fill="#263238"/>
<path d="M258.871 138.128C268.174 144.46 281.469 143.871 281.469 143.871C281.469 143.871 288.877 132.816 288.274 121.589C287.772 112.228 281.01 105.61 274.319 107.117C264.714 109.257 270.673 124.719 270.673 124.719C270.673 124.719 260.508 111.625 253.703 118.747C248.95 123.657 251.118 132.859 258.871 138.128Z" fill="#FFC727"/>
<path d="M286.379 78.9058C288.963 85.8833 296.429 90.6355 296.429 90.6355C296.429 90.6355 304.656 87.5344 308.647 81.246C311.963 76.0057 310.858 69.8465 306.68 68.0806C300.679 65.5538 297.951 76.178 297.951 76.178C297.951 76.178 297.506 65.2236 291.103 66.4296C286.58 67.291 284.226 73.0768 286.379 78.9058Z" fill="#FFC727"/>
<path d="M538.718 244.112C540.225 251.405 546.844 257.22 546.844 257.22C546.844 257.22 555.458 255.382 560.325 249.769C564.403 245.088 564.23 238.828 560.325 236.46C554.769 233.057 550.476 243.15 550.476 243.15C550.476 243.15 551.682 232.253 545.164 232.497C540.67 232.669 537.469 238.039 538.718 244.112Z" fill="#FFC727"/>
<path d="M61.7926 257.277C72.7183 267.973 90.6215 270.299 90.6215 270.299C90.6215 270.299 103.198 257.306 105.079 242.145C106.644 229.496 99.1926 219.03 89.8749 219.418C76.5229 219.992 80.7725 242.102 80.7725 242.102C80.7725 242.102 70.3207 222.16 59.5098 230.028C52.0011 235.526 52.6902 248.362 61.7926 257.277Z" fill="#FFC727"/>
<path d="M84.3043 533.664C77.2981 537.971 69.5309 542.781 61.0172 541.46C53.1496 540.225 44.6933 536.564 41.3194 528.826C40.3575 526.615 40.1278 525.05 42.8556 524.691C47.0335 524.145 51.7713 526.442 55.619 527.778C60.5502 529.541 65.6356 530.839 70.8087 531.654C74.441 532.185 78.1308 532.329 81.7918 532.774C82.2512 532.774 82.7107 532.889 83.2275 532.96L83.7444 533.032L83.9597 532.917C84.018 532.889 84.0817 532.875 84.1464 532.875C84.211 532.875 84.2748 532.889 84.333 532.917L84.4622 533.018C84.503 533.068 84.5317 533.126 84.5459 533.189C84.5602 533.252 84.5596 533.318 84.5443 533.38C84.529 533.443 84.4994 533.501 84.4577 533.55C84.4161 533.6 84.3635 533.638 84.3043 533.664Z" fill="#455A64"/>
<path d="M84.4047 533.004C78.0446 536.406 71.4834 540.484 63.9891 539.019C60.5389 538.266 57.2295 536.972 54.1832 535.186C52.7475 534.41 48.6414 532.099 48.7563 530.19C48.9716 526.73 62.2662 532.903 63.8598 533.319C69.7838 534.691 75.9622 534.503 81.7917 532.774C82.2512 532.774 82.7106 532.889 83.2274 532.96C79.1188 534.251 74.827 534.862 70.5215 534.769C64.5633 534.597 59.883 532.056 54.3268 530.319C53.1208 529.945 49.3593 528.538 49.431 530.692C49.431 532.128 53.5084 534.382 54.3842 534.87C57.2757 536.557 60.4083 537.792 63.6732 538.531C71.1388 540.125 77.8148 536.191 84.3042 532.903L84.4047 533.004Z" fill="white"/>
<path d="M90.6931 535.832L90.9946 536.765C91.0122 536.798 91.0214 536.835 91.0214 536.873C91.0214 536.91 91.0122 536.947 90.9946 536.98C90.939 537.045 90.8623 537.088 90.7781 537.101C90.694 537.114 90.6079 537.097 90.5352 537.052C90.4812 537.01 90.4453 536.948 90.4347 536.88C90.4347 536.88 90.4347 536.794 90.4347 536.736V536.449C86.5153 532.415 83.2562 527.763 79.2937 523.772C75.3311 519.781 71.426 516.407 67.9229 512.286C65.7263 509.702 55.5328 496.221 62.9985 494.441C66.3006 493.665 70.5646 496.695 73.0484 498.561C76.23 501.124 78.9325 504.23 81.0309 507.735C86.4722 516.349 87.75 526.284 90.6931 535.832Z" fill="#455A64"/>
<path d="M90.9946 536.765C90.9085 536.507 90.8367 536.263 90.7506 536.018C90.7588 535.961 90.7588 535.903 90.7506 535.846C90.5496 535.473 90.3342 535.114 90.1189 534.769C87.9966 528.536 85.5085 522.433 82.6676 516.493C80.9332 513.084 78.7188 509.941 76.0921 507.161C75.1876 506.199 70.78 501.605 69.0428 502.753C67.9086 503.485 69.0428 505.926 69.3299 506.745C70.7656 510.233 73.637 512.961 76.0346 515.761C80.8568 521.5 85.2523 527.584 89.1857 533.965L89.7025 535.301L90.1332 536.377L90.2911 536.751C90.3281 536.854 90.3712 536.954 90.4204 537.052C90.4898 537.099 90.5744 537.117 90.657 537.104C90.7397 537.091 90.8141 537.047 90.8654 536.98L90.5352 536.119L90.9228 536.765H90.9946ZM81.1744 521.633C79.0352 518.761 76.7668 516.105 74.441 513.449C73.075 511.979 71.8313 510.399 70.7225 508.726C69.9329 507.434 67.363 502.394 71.6127 504.031C74.6851 505.223 77.7575 509.688 79.4947 512.286C81.4037 515.188 83.0425 518.259 84.3904 521.46C85.9553 525.064 87.2618 528.783 88.6975 532.458C86.3525 528.725 83.8448 525.117 81.1744 521.633Z" fill="white"/>
<path d="M105.524 553.333L105.28 553.505C98.5464 556.836 90.1619 562.32 82.3086 561.028C76.5658 560.081 69.0284 555.96 67.3055 549.887C65.3674 543.025 77.5852 545.724 80.7293 546.269C89.0977 548.02 97.3612 550.24 105.481 552.917H105.639C105.754 553.075 105.653 553.218 105.524 553.333Z" fill="#455A64"/>
<path d="M105.639 553.017L104.117 552.945C98.3023 552.644 92.4878 552.084 86.7306 551.237C85.2949 551.022 74.24 548.581 74.441 551.538C74.5559 553.333 78.6045 554.869 79.9254 555.415C82.2997 556.377 84.8182 556.935 87.3767 557.066C93.263 557.353 98.8623 554.984 104.605 553.534L105.409 553.333H105.581C105.653 553.218 105.754 553.089 105.639 553.017ZM90.6213 556.549C88.0088 556.768 85.3781 556.544 82.8398 555.889C81.1601 555.458 75.1014 553.706 75.2306 551.581C75.2306 550.433 76.0059 550.634 77.3411 550.562C77.9484 550.526 78.5572 550.526 79.1644 550.562C80.6001 550.677 82.1507 550.95 83.6295 551.194C86.2329 551.634 88.8363 552.007 91.4397 552.314C95.7468 552.845 100.054 553.175 104.361 553.376C99.7093 554.281 95.2874 556.118 90.6213 556.549Z" fill="white"/>
<path d="M109.96 533.161C112.431 541.613 112.331 550.609 109.673 559.004C109.661 559.056 109.631 559.102 109.587 559.133C109.536 559.186 109.47 559.222 109.398 559.235C109.325 559.248 109.251 559.238 109.185 559.205C109.11 559.173 109.05 559.114 109.018 559.039C108.986 558.964 108.984 558.879 109.013 558.803C109.013 558.631 109.099 558.458 109.156 558.286C105.266 548.782 101.533 539.263 97.4553 529.831C96.4934 527.605 90.6645 513.291 96.0196 513.177C99.3074 513.105 102.538 518.503 104.131 520.843C106.695 524.626 108.661 528.78 109.96 533.161Z" fill="#455A64"/>
<path d="M110.046 551.739C110.043 548.367 109.726 545.003 109.099 541.69C108.44 538.303 107.435 534.993 106.098 531.812C104.864 528.94 103.227 524.791 100.915 522.566C100.284 521.949 99.4796 521.403 98.9197 522.379C97.886 524.274 100.757 530.922 101.475 532.817C104.347 540.613 106.529 548.466 108.654 556.449L109.214 558.487C109.214 558.731 109.214 558.99 109.113 559.234C109.171 559.278 109.242 559.302 109.314 559.302C109.387 559.302 109.458 559.278 109.515 559.234C109.522 559.162 109.522 559.09 109.515 559.018C109.515 558.688 109.616 558.344 109.644 557.999C109.91 555.923 110.044 553.832 110.046 551.739ZM109.285 557.985C109.285 557.698 109.185 557.425 109.113 557.152C107.814 550.855 106.107 544.649 104.002 538.574C102.911 535.487 101.633 532.501 100.643 529.386C100.241 528.079 98.9341 524.389 99.6089 523.298C100.284 522.207 101.045 523.528 101.518 524.231C101.992 524.935 102.437 525.667 102.724 526.227C108.171 535.692 110.488 546.636 109.343 557.497C109.372 557.64 109.285 557.798 109.285 557.985Z" fill="white"/>
<path d="M121.058 576.936H119.335C118.948 576.261 118.546 575.601 118.158 574.94C115.416 570.375 112.631 565.838 109.745 561.344C108.108 558.774 106.457 556.247 104.72 553.792C104.72 553.706 104.605 553.634 104.548 553.534L104.117 552.945C103.973 552.73 103.801 552.515 103.643 552.299C99.7573 546.73 95.0189 541.808 89.602 537.713C87.7643 536.377 85.8835 535.114 83.9453 533.894L83.4428 533.578L83.2993 533.492L82.7393 533.161L82.323 532.903C76.3218 529.271 70.0047 526.112 63.8599 522.853C62.094 521.92 60.3281 520.972 58.5909 519.982L58.275 519.809L57.873 519.608C50.1059 515.387 42.3818 511.095 34.5285 507.089C34.227 506.945 34.5285 506.515 34.7869 506.673C40.056 509.286 45.3824 511.784 50.6945 514.325L52.8193 515.344L57.0116 517.354C59.883 518.675 62.5534 520.039 65.3099 521.46C73.2207 525.241 80.8922 529.504 88.2811 534.224L89.8748 535.358C90.2193 535.588 90.5495 535.832 90.8654 536.076C91.1813 536.32 91.6263 536.621 91.9996 536.909C98.298 541.973 103.662 548.1 107.85 555.013C108.137 555.487 108.453 555.946 108.754 556.448L109.185 557.123L109.415 557.468C109.501 557.626 109.601 557.769 109.702 557.942L109.917 558.301C110.176 558.703 110.42 559.119 110.678 559.535C113.463 564.091 116.196 568.661 118.876 573.246L121.058 576.936Z" fill="#455A64"/>
<path d="M35.3613 515.186C29.0873 512.315 18.9369 504.979 21.3345 496.867C21.7352 495.33 22.69 493.996 24.0153 493.122C25.3406 492.247 26.9427 491.893 28.513 492.129C32.4325 492.589 35.8064 495.704 38.4768 498.36C45.6553 505.438 52.0154 513.133 59.6533 519.709C59.6533 519.709 60.2994 520.283 60.4717 520.412C60.644 520.542 60.4717 520.786 60.242 520.656L59.4954 520.01C51.4698 519.048 42.7982 518.532 35.3613 515.186Z" fill="#455A64"/>
<path d="M59.7107 519.709L59.5384 519.623C57.1782 518.322 54.8963 516.884 52.7045 515.316C48.1788 511.935 43.8637 508.282 39.7832 504.376C38.2039 502.94 30.6808 495.474 29.4892 500.758C28.9867 502.997 30.6377 505.524 31.8725 507.218C33.8579 509.945 36.3666 512.248 39.252 513.995C44.9948 517.527 51.5415 518.934 58.1027 519.738L58.9928 519.852L59.2369 519.996L59.4092 520.082C59.4266 520.092 59.4465 520.098 59.4666 520.098C59.4868 520.098 59.5066 520.092 59.524 520.082C59.5543 520.079 59.5836 520.069 59.6101 520.054C59.6366 520.039 59.6599 520.019 59.6787 519.995C59.6974 519.971 59.7111 519.944 59.7191 519.914C59.727 519.885 59.7291 519.854 59.725 519.824C59.7325 519.785 59.7275 519.745 59.7107 519.709ZM57.7581 519.522C52.2984 518.824 46.9746 517.31 41.9654 515.029C39.3952 513.759 37.025 512.119 34.9305 510.162C34.0137 509.277 33.1733 508.316 32.418 507.29C31.8474 506.531 31.3521 505.719 30.9392 504.864C29.9773 503.012 29.6184 500.557 30.5947 499.81C31.7863 498.834 32.6621 499.365 34.3993 500.399C34.9847 500.748 35.5459 501.137 36.079 501.562C37.413 502.616 38.6924 503.737 39.9124 504.921C41.9654 506.845 44.0185 508.755 46.1433 510.592C47.579 511.841 49.0147 513.062 50.5796 514.21C53.1835 516.211 55.9226 518.029 58.7775 519.651L57.7581 519.522Z" fill="white"/>
<path d="M548.265 513.119C544.719 517.326 540.886 521.303 537.024 525.222C534.827 527.462 532.616 529.658 530.419 531.898C528.008 534.353 525.294 536.693 524.203 540.053C524.143 540.197 524.071 540.336 523.988 540.469H523.916C523.845 540.489 523.771 540.49 523.7 540.472C523.63 540.454 523.565 540.418 523.512 540.367C523.46 540.316 523.422 540.252 523.402 540.182C523.382 540.112 523.381 540.037 523.399 539.967C523.416 539.893 523.44 539.821 523.471 539.751C523.471 539.751 523.471 539.751 523.471 539.665C523.539 538.637 523.727 537.621 524.031 536.636C525.634 528.268 528.68 520.242 533.032 512.918C535.697 508.55 538.932 504.557 542.652 501.045C545.638 498.245 550.031 494.024 554.137 493.091C557.884 492.244 557.368 497.154 556.793 499.451C555.516 504.692 551.625 509.171 548.265 513.119Z" fill="#455A64"/>
<path d="M550.491 500.715C548.811 499.623 544.087 504.232 541.977 506.185C538.65 509.254 535.713 512.721 533.233 516.507C528.816 523.331 525.593 530.856 523.7 538.761C523.614 539.077 523.528 539.392 523.456 539.708C523.456 539.708 523.456 539.78 523.456 539.809C523.453 539.88 523.453 539.952 523.456 540.024C523.435 540.096 523.435 540.173 523.455 540.245C523.475 540.317 523.515 540.383 523.57 540.434C523.625 540.484 523.694 540.519 523.768 540.533C523.841 540.546 523.918 540.539 523.988 540.512C524.212 539.939 524.466 539.379 524.749 538.832C524.766 538.773 524.79 538.715 524.82 538.66C524.892 538.531 524.949 538.387 525.036 538.258C525.222 537.842 525.438 537.44 525.653 537.052C528.768 531.309 533.205 526.155 537.44 521.159C542.35 515.301 552.702 502.165 550.491 500.715ZM548.208 506.199C547.72 507.046 547.188 507.864 546.643 508.683C545.537 510.348 544.317 511.956 543.097 513.535C540.412 516.967 537.541 520.255 534.741 523.585C530.812 527.961 527.406 532.779 524.591 537.942C524.189 538.746 523.83 539.55 523.499 540.369C523.672 539.723 523.844 539.077 524.031 538.445C525.903 531.54 528.699 524.919 532.343 518.761C534.428 515.306 536.873 512.082 539.637 509.142C541.123 507.577 542.7 506.1 544.36 504.72C545.064 504.146 549.227 500.413 550.103 501.318C550.735 501.992 548.251 506.113 548.208 506.199Z" fill="white"/>
<path d="M566.384 542.91C559.421 546.901 551.266 548.136 543.413 548.653C539.192 548.897 534.942 548.94 530.707 549.083C526.914 548.996 523.123 549.299 519.393 549.988L518.905 550.103C517.876 550.378 516.88 550.763 515.933 551.251C515.902 551.266 515.867 551.273 515.833 551.273C515.798 551.273 515.764 551.266 515.732 551.251L515.46 551.452C515.46 551.452 515.302 551.452 515.359 551.352L515.589 551.065C515.581 551.015 515.589 550.965 515.613 550.921C515.636 550.877 515.673 550.842 515.718 550.821H515.833C515.919 550.734 515.991 550.634 516.062 550.548C521.489 544.116 530.994 540.225 538.646 537.512C546.298 534.798 554.439 533.377 562.493 535.057C564.503 535.487 569.27 536.162 570.059 538.531C570.849 540.9 567.863 542.063 566.384 542.91Z" fill="#455A64"/>
<path d="M561.617 539.852C561.1 537.454 554.439 538.258 552.845 538.416C547.937 538.947 543.085 539.908 538.345 541.288C530.568 543.124 523.131 546.176 516.307 550.332L516.034 550.419L515.79 550.691H515.675C515.629 550.715 515.591 550.753 515.568 550.799C515.545 550.846 515.537 550.899 515.546 550.95L515.919 550.835C516.881 550.519 517.857 550.246 518.79 550.002L519.278 549.873C526.179 548.398 533.165 547.363 540.197 546.772C545.09 546.27 549.926 545.309 554.64 543.9C555.889 543.628 562.048 541.876 561.617 539.852ZM558.186 542.192C550.663 545.853 541.532 546.155 533.348 547.073C527.823 547.561 522.357 548.576 517.024 550.103C523.344 546.586 530.103 543.926 537.124 542.192C541.084 541.049 545.106 540.134 549.17 539.45C551.37 539.057 553.597 538.836 555.831 538.789C557.17 538.743 558.51 538.854 559.823 539.12C562.22 539.809 559.478 541.56 558.186 542.192Z" fill="white"/>
<path d="M505.625 564.833C505.56 564.865 505.489 564.881 505.417 564.881C505.345 564.881 505.273 564.865 505.209 564.833V564.991C505.214 565.008 505.215 565.025 505.211 565.042C505.207 565.059 505.2 565.075 505.188 565.088C505.176 565.101 505.162 565.111 505.145 565.117C505.129 565.122 505.111 565.123 505.094 565.12C505.079 565.127 505.062 565.131 505.046 565.13C505.029 565.129 505.013 565.124 504.999 565.116C504.985 565.107 504.973 565.095 504.964 565.081C504.956 565.067 504.951 565.051 504.95 565.034C503.026 555.558 502.079 544.934 504.261 535.487C505.142 531.472 506.669 527.627 508.783 524.102C510.219 521.705 513.205 516.924 516.35 516.464C522.638 515.66 516.823 532.702 515.933 535.272C514.325 539.952 512.33 544.475 510.621 549.126C508.769 554.209 507.276 559.42 505.797 564.632C505.767 564.719 505.706 564.79 505.625 564.833Z" fill="#455A64"/>
<path d="M514.009 522.753C512.789 523.126 509.516 529.414 508.798 531.123C507.225 535.044 506.136 539.142 505.553 543.326C504.498 550.331 504.324 557.44 505.036 564.488C505.036 564.704 505.036 564.905 505.036 565.106C505.053 565.104 505.07 565.099 505.085 565.091C505.1 565.082 505.113 565.071 505.124 565.058C505.134 565.045 505.142 565.029 505.147 565.013C505.152 564.996 505.153 564.979 505.151 564.962C505.144 564.915 505.144 564.866 505.151 564.819H505.266C505.316 564.84 505.37 564.851 505.424 564.851C505.478 564.851 505.532 564.84 505.582 564.819C505.582 564.302 505.582 563.799 505.668 563.282C506.223 554.912 508.073 546.679 511.152 538.876C512.801 534.99 514.126 530.976 515.115 526.873C515.359 525.839 516.378 522.092 514.009 522.753ZM514.871 526.227C514.681 527.59 514.359 528.932 513.909 530.233C513.292 532.07 512.631 533.894 511.928 535.717C510.492 539.349 509.056 542.982 508.008 546.714C506.39 552.061 505.488 557.598 505.323 563.182C504.958 557.752 505.044 552.302 505.582 546.887C505.957 542.71 506.775 538.586 508.023 534.583C508.534 532.998 509.138 531.445 509.831 529.931C510.366 528.74 510.985 527.588 511.684 526.485C513.449 523.815 514.11 523.27 514.555 523.456C515 523.643 515.129 524.117 514.871 526.227Z" fill="white"/>
<path d="M532.975 562.622C530.474 565.008 527.486 566.825 524.217 567.948C517.814 570.404 510.994 571.48 504.462 573.476C503.486 573.777 502.509 574.108 501.591 574.452C501.476 574.452 500.428 575.184 500.485 575.113L501.332 574.222C503.931 571.523 511.913 563.469 517.426 560.282C520.825 558.204 524.465 556.55 528.266 555.357C530.089 554.855 534.195 553.922 535.674 555.659C537.153 557.396 534.253 561.33 532.975 562.622Z" fill="#455A64"/>
<path d="M531.195 558.789C530.017 556.291 519.034 562.062 517.584 562.794C512.236 565.482 507.264 568.861 502.797 572.844C502.28 573.275 501.792 573.734 501.361 574.194L500.629 574.969L500.528 575.07C500.644 575.023 500.754 574.966 500.858 574.897L501.088 574.754L501.404 574.553L501.619 574.423L502.107 574.251L503.069 573.921L504.505 573.462C508.812 571.595 513.248 569.8 517.57 567.834C520.695 566.446 523.704 564.814 526.572 562.952C527.175 562.55 531.712 559.88 531.195 558.789ZM528.969 560.985C521.03 567.058 511.267 569.6 502.337 573.734L501.892 573.935L502.481 573.447C506.245 570.226 510.307 567.371 514.612 564.919C517.24 563.438 519.953 562.115 522.738 560.957C524.241 560.259 525.785 559.654 527.361 559.148C528.065 558.975 529.989 558.545 530.233 559.004C530.477 559.463 529.486 560.583 528.969 560.985Z" fill="white"/>
<path d="M595.141 510.291C580.525 519.953 561.086 516.22 545.982 524.863H545.911C545.451 525.122 544.973 525.394 544.475 525.681C544.431 525.711 544.38 525.729 544.327 525.734C544.274 525.738 544.22 525.73 544.172 525.708C544.123 525.687 544.081 525.653 544.048 525.611C544.016 525.569 543.995 525.519 543.987 525.466C543.983 525.417 543.993 525.369 544.016 525.325C544.039 525.282 544.074 525.246 544.116 525.222L544.446 525.021C550.735 517.613 559.478 511.439 567.977 506.802C575.386 502.796 583.77 499.982 592.269 500.858C594.366 501.074 598.558 501.361 599.448 503.844C600.338 506.328 596.935 509.171 595.141 510.291Z" fill="#455A64"/>
<path d="M589.484 507.448C589.097 506.414 587.532 506.357 586.613 506.271C584.476 506.06 582.321 506.108 580.195 506.414C575.837 507.057 571.598 508.344 567.619 510.233C560.717 513.254 554.212 517.112 548.251 521.719C546.93 522.781 545.652 523.887 544.432 525.064L543.973 525.495C543.982 525.547 544.003 525.596 544.035 525.638C544.068 525.68 544.109 525.714 544.157 525.736C544.205 525.759 544.257 525.769 544.31 525.767C544.363 525.765 544.415 525.751 544.461 525.725C544.891 525.452 545.293 525.208 545.724 524.964L545.853 524.892C548.74 522.946 551.807 521.282 555.013 519.924C560.085 518.029 565.274 516.46 570.547 515.23C572.73 514.67 590.834 511.009 589.484 507.448ZM586.527 509.961C582.693 511.97 578.257 512.746 574.094 513.866C569.93 514.985 565.695 516.091 561.517 517.297C558.193 518.239 554.955 519.464 551.84 520.958C549.238 522.2 546.753 523.675 544.418 525.366C546.523 523.467 548.754 521.712 551.094 520.111C551.122 520.101 551.152 520.101 551.18 520.111C555.361 517.294 559.715 514.743 564.216 512.473L564.388 512.387C568.3 510.285 572.45 508.66 576.75 507.549C579.099 506.968 581.508 506.66 583.928 506.63C586.656 506.63 588.867 506.917 588.953 507.85C588.982 508.439 587.661 509.372 586.527 509.961Z" fill="white"/>
<path d="M564.403 512.775C560.182 515.431 555.989 518.187 551.826 520.958L545.968 524.877L545.839 524.949L543.786 526.385C537.411 530.692 530.692 534.87 525.122 540.125C522.192 542.915 519.533 545.977 517.182 549.27L516.436 550.289L516.048 550.849C515.962 550.95 515.905 551.065 515.833 551.165C513.808 554.037 511.928 557.037 510.09 559.952C507.549 564.015 505.309 568.207 503.112 572.442C503.036 572.559 502.973 572.684 502.926 572.815C502.811 573.002 502.71 573.189 502.61 573.39C502.556 573.483 502.508 573.578 502.466 573.677L502.165 574.222L500.729 576.879H498.992C500.7 572.68 502.7 568.607 504.979 564.689C505.019 564.604 505.067 564.522 505.122 564.445C505.338 564.043 505.582 563.627 505.812 563.239C506.041 562.852 506.372 562.263 506.673 561.804C507.391 560.641 508.109 559.478 508.798 558.344C512.947 551.711 517.412 544.905 523.155 539.407L523.629 538.962C523.689 538.892 523.756 538.83 523.83 538.775L524.16 538.445L524.72 537.942L525.725 537.067L526.026 536.808C531.545 532.442 537.354 528.456 543.413 524.877C544.489 524.203 545.552 523.528 546.643 522.867L548.438 521.776L551.208 520.14C551.236 520.13 551.267 520.13 551.295 520.14C555.602 517.57 560.009 515.1 564.331 512.502C564.403 512.315 564.618 512.66 564.403 512.775Z" fill="#455A64"/>
<path d="M463.487 453.911C463.487 453.911 490.134 531.137 503.256 562.493C505.591 567.579 508.948 572.129 513.119 575.859C515.345 578.085 602.204 576.175 603.798 575.859C605.392 575.543 594.552 554.697 588.522 551.84C582.492 548.983 536.665 557.396 536.665 557.396C536.665 557.396 534.971 466.732 535.502 463.975C535.857 460.638 535.996 457.281 535.918 453.925L536.981 467.808C536.981 467.808 540.053 457.414 540.168 452.633C540.283 447.852 537.296 400.675 537.296 400.675L463.487 453.911Z" fill="#FFC727"/>
<path d="M463.487 453.911C463.487 453.911 490.134 531.137 503.256 562.493C505.591 567.579 508.948 572.129 513.119 575.859C515.345 578.085 602.204 576.175 603.798 575.859C605.392 575.543 594.552 554.697 588.522 551.84C582.492 548.983 536.665 557.396 536.665 557.396C536.665 557.396 534.971 466.732 535.502 463.975C535.857 460.638 535.996 457.281 535.918 453.925L536.981 467.808C536.981 467.808 540.053 457.414 540.168 452.633C540.283 447.852 537.296 400.675 537.296 400.675L463.487 453.911Z" fill="#DD3312"/>
<path d="M583.526 562.019C588.034 564.89 592.944 570.633 591.063 576.376C590.762 570.633 586.656 566.599 583.526 562.019Z" fill="#263238"/>
<path d="M592.427 561.488C596.95 564.359 601.86 570.102 599.979 575.845C599.663 570.102 595.571 566.068 592.427 561.488Z" fill="#263238"/>
<path opacity="0.1" d="M538.402 418.722C529.989 435.161 517.541 452.719 513.277 456.366C500.797 466.305 487.606 475.316 473.81 483.328C467.794 466.358 463.487 453.882 463.487 453.882L537.296 400.632C537.296 400.632 537.813 408.83 538.402 418.722Z" fill="black"/>
<path d="M192.972 511.066L187.833 531.64C145.049 498.619 104.375 445.368 89.1138 394.703C85.8261 383.734 78.303 359.959 78.1594 350.196C78.0015 339.902 83.4141 325.085 83.9022 323.894C83.7587 324.985 82.0502 338.509 83.9022 350.024C83.9884 348.171 84.1319 346.362 84.3329 344.539C90.8367 285.245 174.136 234.177 174.136 234.177C174.136 234.177 133.664 295.912 138.387 377.747C140.052 406.662 150.404 435.376 161.631 458.72C156.448 447.378 151.581 428.987 151.351 427.853C152.213 429.906 175.385 484.419 184.071 498.288L184.947 499.638C185.177 499.968 185.363 500.255 185.535 500.528C190.044 507.247 192.972 511.066 192.972 511.066Z" fill="#FFC727"/>
<path opacity="0.4" d="M192.972 511.066L187.833 531.64C145.049 498.619 104.375 445.368 89.1138 394.703C85.8261 383.734 78.303 359.959 78.1594 350.196C78.0015 339.902 83.4141 325.085 83.9022 323.894C83.7587 324.985 82.0502 338.509 83.9022 350.024C83.9884 348.171 84.1319 346.362 84.3329 344.539C90.8367 285.245 174.136 234.177 174.136 234.177C174.136 234.177 133.664 295.912 138.387 377.747C140.052 406.662 150.404 435.376 161.631 458.72C156.448 447.378 151.581 428.987 151.351 427.853C152.213 429.906 175.385 484.419 184.071 498.288L184.947 499.638C185.177 499.968 185.363 500.255 185.535 500.528C190.044 507.247 192.972 511.066 192.972 511.066Z" fill="black"/>
<path opacity="0.1" d="M192.972 511.066L187.833 531.64C182.391 527.447 176.993 522.939 171.695 518.13L179.635 490.349C181.315 493.622 182.793 496.336 184.014 498.274L184.889 499.623C185.119 499.954 185.306 500.241 185.478 500.514C190.044 507.247 192.972 511.066 192.972 511.066Z" fill="black"/>
<path d="M180.022 540.498C180.568 547.806 179.075 575.5 206.741 575.5H343.549C361.366 575.5 486.516 472.704 507.606 448.872C528.697 425.039 546.844 396.382 549.385 373.469C551.926 350.555 527.649 246.538 501.232 197.854C501.232 197.854 501.016 174.954 494.972 156.505C488.928 138.057 472.087 111.64 452.992 105.596C433.897 99.5512 344.826 114.827 335.911 132.314C326.995 149.801 327.641 180.683 327.641 180.683C327.641 180.683 250.975 213.445 251.291 218.858C251.606 224.271 281.828 256.717 307.283 259.259C332.738 261.8 381.724 242.403 381.724 242.403C381.724 242.403 383.949 251.621 381.408 259.89C378.867 268.16 314.275 356.958 302.445 365.687C290.614 374.416 225.577 398.292 211.22 422.785C196.863 447.278 177.165 501.992 180.022 540.498Z" fill="#FFC727"/>
<path d="M180.022 540.498C180.568 547.806 179.075 575.5 206.741 575.5H343.549C361.366 575.5 486.516 472.704 507.606 448.872C528.697 425.039 546.844 396.382 549.385 373.469C551.926 350.555 527.649 246.538 501.232 197.854C501.232 197.854 501.016 174.954 494.972 156.505C488.928 138.057 472.087 111.64 452.992 105.596C433.897 99.5512 344.826 114.827 335.911 132.314C326.995 149.801 327.641 180.683 327.641 180.683C327.641 180.683 250.975 213.445 251.291 218.858C251.606 224.271 281.828 256.717 307.283 259.259C332.738 261.8 381.724 242.403 381.724 242.403C381.724 242.403 383.949 251.621 381.408 259.89C378.867 268.16 314.275 356.958 302.445 365.687C290.614 374.416 225.577 398.292 211.22 422.785C196.863 447.278 177.165 501.992 180.022 540.498Z" fill="#FFC727"/>
<path d="M180.022 540.498C180.568 547.806 179.075 575.5 206.741 575.5H343.549C361.366 575.5 486.516 472.704 507.606 448.872C528.697 425.039 546.844 396.382 549.385 373.469C551.926 350.555 527.649 246.538 501.232 197.854C501.232 197.854 501.016 174.954 494.972 156.505C488.928 138.057 472.087 111.64 452.992 105.596C433.897 99.5512 344.826 114.827 335.911 132.314C326.995 149.801 327.641 180.683 327.641 180.683C327.641 180.683 250.975 213.445 251.291 218.858C251.606 224.271 281.828 256.717 307.283 259.259C332.738 261.8 381.724 242.403 381.724 242.403C381.724 242.403 383.949 251.621 381.408 259.89C378.867 268.16 314.275 356.958 302.445 365.687C290.614 374.416 225.577 398.292 211.22 422.785C196.863 447.278 177.165 501.992 180.022 540.498Z" fill="#F94A29"/>
<path opacity="0.1" d="M223.941 419.913C213.747 433.294 201.716 510.291 214.723 537.641C225.793 560.914 288.647 573.619 326.378 575.515H206.755C179.061 575.515 180.554 547.82 180.022 540.512C177.151 502.021 196.878 447.292 211.206 422.785C225.534 398.277 290.729 374.43 302.516 365.687C314.303 356.944 378.867 268.16 381.48 259.89C384.093 251.621 381.81 242.403 381.81 242.403C381.81 242.403 401.278 233.186 408.457 229.209C408.457 229.209 413.568 247.873 413.582 258.397C413.597 268.921 326.004 364.639 310.958 371.616C295.912 378.594 234.191 406.561 223.941 419.913Z" fill="black"/>
<path opacity="0.2" d="M284.857 375.062C282.919 398.809 271.003 433.667 253.186 453.552C235.096 473.752 199.045 476.839 188.895 477.313C195.284 455.39 203.941 435.204 211.206 422.756C221.887 404.537 260.838 386.619 284.857 375.062Z" fill="black"/>
<path opacity="0.2" d="M302.99 385.514C305.086 394.731 323.664 396.224 332.58 392.247C341.496 388.271 346.578 374.301 339.256 365.687C331.934 357.073 300.435 374.33 302.99 385.514Z" fill="black"/>
<path opacity="0.2" d="M368.831 311.92C368.358 323.205 358.509 341.352 347.841 344.941C339.931 347.669 329.723 345.372 324.483 340.218C336.399 324.985 350.641 305.689 361.911 289.738C366.821 293.442 369.147 303.535 368.831 311.92Z" fill="black"/>
<path opacity="0.1" d="M490.694 334.015C492.574 325.157 493.709 315.94 492.661 307.225C492.633 307.048 492.668 306.867 492.757 306.711C492.847 306.556 492.987 306.436 493.154 306.371C493.321 306.305 493.506 306.299 493.677 306.353C493.848 306.406 493.996 306.516 494.096 306.665C495.431 308.101 499.193 312.193 499.753 312.824C499.753 312.279 499.753 311.733 499.652 311.216C499.494 309.393 499.25 307.584 498.935 305.804C498.26 302.211 497.3 298.677 496.063 295.237C494.825 291.807 493.297 288.488 491.498 285.316C489.674 282.1 487.492 279.143 485.396 276.071C485.31 275.941 485.554 275.769 485.683 275.884C488.552 278.456 491.063 281.402 493.149 284.642C495.213 287.697 496.992 290.936 498.461 294.318C499.931 297.737 501.066 301.29 501.849 304.928C502.251 306.823 502.553 308.718 502.768 310.671C503.105 312.546 503.105 314.467 502.768 316.342C502.466 317.577 500.643 317.39 500.126 316.529C499.81 315.997 495.044 310.14 494.312 309.35C495.245 317.755 494.238 326.262 491.368 334.216C491.254 334.547 490.607 334.417 490.694 334.015Z" fill="black"/>
<path opacity="0.1" d="M380.963 241.441C379.786 241.915 377.23 242.877 373.713 244.141L380.963 241.441Z" fill="black"/>
<path d="M340.433 559.55C340.433 559.55 336.787 572.471 339.586 575.342C342.386 578.214 461.118 576.778 461.334 575.342C461.549 573.907 443.1 548.94 431.428 547.662C419.756 546.384 382.442 557.209 382.442 557.209C382.442 557.209 450.609 472.273 430.595 421.593C421.794 399.268 369.004 390.582 301.382 417.889C239.906 442.698 254.722 553.046 288.461 565.135C322.2 577.223 340.433 559.55 340.433 559.55Z" fill="#FFC727"/>
<path d="M340.433 559.55C340.433 559.55 336.787 572.471 339.586 575.342C342.386 578.214 461.118 576.778 461.334 575.342C461.549 573.907 443.1 548.94 431.428 547.662C419.756 546.384 382.442 557.209 382.442 557.209C382.442 557.209 450.609 472.273 430.595 421.593C421.794 399.268 369.004 390.582 301.382 417.889C239.906 442.698 254.722 553.046 288.461 565.135C322.2 577.223 340.433 559.55 340.433 559.55Z" fill="#DD3312"/>
<path d="M305.646 415.736C336.097 403.46 399.397 386.232 425.685 412.304C446.675 434.514 432.318 473.537 420.832 497.398C410.201 518.631 397.331 538.668 382.442 557.166C389.391 547.576 395.952 537.727 402.025 527.591C418.478 499.939 448.326 445.383 425.254 415.764C401.278 388.486 335.939 405.355 305.718 415.764L305.646 415.736Z" fill="#263238"/>
<path d="M318.252 406.82C324.874 404.846 331.867 404.458 338.667 405.686C331.887 406.423 325.072 406.802 318.252 406.82Z" fill="#263238"/>
<path d="M339.916 575.5C339.51 575.325 339.161 575.04 338.907 574.678C338.653 574.315 338.506 573.889 338.481 573.447C338.119 570.865 338.038 568.251 338.237 565.651C338.857 557.041 340.246 548.503 342.386 540.139C342.831 538.474 343.247 536.808 343.821 535.157C343.62 536.866 343.348 538.574 343.132 540.283C342.659 543.484 341.323 552.242 340.806 555.558C340.06 560.641 339.198 565.723 338.926 570.849C338.926 572.414 338.409 574.553 340.031 575.5H339.916Z" fill="#263238"/>
<path d="M340.06 537.454C340.634 540.412 340.921 543.47 341.252 546.413C342.127 552.802 339.672 545.997 339.5 543.542C339.218 541.477 339.41 539.376 340.06 537.397V537.454Z" fill="#263238"/>
<path d="M437.271 562.019C441.794 564.89 446.704 570.633 444.823 576.376C444.507 570.633 440.415 566.599 437.271 562.019Z" fill="#263238"/>
<path d="M446.187 561.488C450.695 564.359 455.605 570.102 453.724 575.845C453.423 570.102 449.331 566.068 446.187 561.488Z" fill="#263238"/>
<path d="M501.232 196.605C501.232 196.605 504.591 163.985 506.113 161.2C507.635 158.415 523.686 154.524 528.137 157.783C532.587 161.042 503.486 199.16 503.486 199.16L501.232 196.605Z" fill="#455A64"/>
<path d="M508.726 192.111C508.324 192.685 507.922 193.216 507.563 193.733C505.611 193.001 503.701 192.297 501.82 191.651C501.82 191.034 501.964 190.388 502.036 189.699C504.237 190.455 506.467 191.259 508.726 192.111ZM513.536 176.318C510.291 175.155 507.132 174.035 504.017 172.987C503.931 173.619 503.845 174.265 503.773 174.925C506.788 175.959 509.875 177.022 513.019 178.17L514.813 178.831C515.689 179.132 516.579 179.462 517.455 179.807L518.561 178.17C517.469 177.754 516.407 177.352 515.33 176.993C514.713 176.663 514.153 176.462 513.536 176.246V176.318ZM519.666 160.927L517.871 160.296C515.919 159.592 513.966 158.86 512.129 158.271C511.052 158.602 510.061 158.946 509.257 159.305C511.956 160.224 514.713 161.157 517.527 162.176L519.307 162.808C521.662 163.641 524.031 164.531 526.486 165.45C526.787 164.832 527.074 164.258 527.333 163.698C524.691 162.693 522.135 161.746 519.666 160.856V160.927ZM518.747 156.879L517.871 160.296C517.713 160.913 517.541 161.53 517.398 162.162C516.192 166.67 514.904 171.389 513.536 176.318L513.019 178.17C511.77 182.578 510.434 187.129 509.027 191.781C510.09 190.345 511.238 188.751 512.416 187.071C513.248 184.272 514.052 181.515 514.813 178.831L515.33 176.993C516.766 172.054 518.001 167.302 519.178 162.794C519.365 162.176 519.522 161.545 519.666 160.927C520.054 159.492 520.413 158.056 520.786 156.692C520.111 156.649 519.436 156.735 518.747 156.807V156.879Z" fill="#37474F"/>
<path opacity="0.3" d="M501.232 196.605C501.232 196.605 504.921 162.148 511.282 161.444C517.642 160.741 503.601 192.47 501.232 196.605Z" fill="black"/>
<path d="M502.782 196.289C502.782 196.289 526.701 186.239 529.213 185.98C533.879 185.55 538.632 194.006 538.1 198.356C537.569 202.706 501.878 198.844 501.878 198.844L502.782 196.289Z" fill="#455A64"/>
<path d="M532.401 186.928L529.256 188.536L527.577 189.412C527.806 190 528.051 190.589 528.295 191.192L530.003 190.316C531.338 189.627 532.659 188.952 533.951 188.263C533.481 187.766 532.962 187.319 532.401 186.928ZM529.946 190.316L529.199 188.536C528.869 187.732 528.567 186.957 528.223 186.181L526.428 186.77L527.519 189.412C527.749 190 527.993 190.589 528.237 191.192C529.443 194.149 530.64 197.179 531.826 200.28C532.53 200.28 533.262 200.179 533.793 200.108C532.587 196.777 531.281 193.503 529.946 190.316Z" fill="#37474F"/>
<path d="M515.158 197.767C515.459 198.514 515.746 199.289 516.062 200.036L513.952 199.892L513.435 198.614C512.703 198.959 511.999 199.318 511.238 199.691L507.448 199.375L512.732 196.834C512.186 195.47 511.64 194.149 511.095 192.829L512.861 192.111L514.426 195.987C519.02 193.733 523.428 191.536 527.577 189.412C527.806 190 528.05 190.589 528.295 191.192C524.203 193.317 519.752 195.513 515.158 197.767Z" fill="#37474F"/>
<path opacity="0.3" d="M502.782 196.289C502.782 196.289 528.137 185.492 531.051 189.656C533.966 193.819 506.558 196.332 502.782 196.289Z" fill="black"/>
<path d="M381.279 241.958C382.542 246.581 475.892 271.519 483.056 268.189C488.411 265.69 507.175 200.495 502.897 194.638C501.088 192.168 497.513 198.284 453.624 216.747C433.266 225.319 380.245 238.225 381.279 241.958Z" fill="#455A64"/>
<path d="M394.516 235.842C394.52 235.804 394.52 235.766 394.516 235.727L392.721 236.359C392.716 236.392 392.716 236.426 392.721 236.46C393.037 237.364 393.411 238.297 393.726 239.231C394.344 239.058 394.961 238.886 395.593 238.742C395.22 237.824 394.861 236.79 394.516 235.842ZM396.239 240.537L394.401 241.054C395.277 243.509 396.181 246.021 397.086 248.606L399.34 249.324C398.306 246.309 397.273 243.365 396.239 240.537ZM417.401 251.219C417.214 250.601 416.999 250.013 416.813 249.41C415.219 244.701 413.625 240.164 412.06 235.857C411.831 235.254 411.615 234.651 411.414 234.062L410.237 230.932L408.385 231.506C408.773 232.511 409.175 233.574 409.548 234.622C409.778 235.211 409.993 235.799 410.223 236.417C411.788 240.724 413.396 245.275 414.975 249.984C415.176 250.573 415.391 251.19 415.578 251.807L416.439 254.406L418.65 255.023C418.248 253.745 417.817 252.453 417.401 251.219ZM448.757 240.695L446.948 241.341C448.451 245.773 449.934 250.357 451.399 255.095C452.016 254.894 452.605 254.679 453.222 254.449C451.772 249.783 450.25 245.189 448.757 240.695ZM448.757 240.695L446.948 241.341C448.451 245.773 449.934 250.357 451.399 255.095C452.016 254.894 452.605 254.679 453.222 254.449C451.772 249.783 450.25 245.189 448.757 240.695ZM448.757 240.695L446.948 241.341C448.451 245.773 449.934 250.357 451.399 255.095C452.016 254.894 452.605 254.679 453.222 254.449C451.772 249.783 450.25 245.189 448.757 240.695ZM433.151 246.122C432.935 245.505 432.749 244.902 432.533 244.284C430.925 239.561 429.303 235.01 427.738 230.702C427.508 230.114 427.279 229.511 427.063 228.922L426.015 226.051C425.398 226.252 424.781 226.438 424.149 226.611C424.522 227.573 424.867 228.52 425.24 229.482C425.455 230.085 425.685 230.688 425.915 231.305C427.508 235.613 429.116 240.149 430.696 244.873C430.911 245.461 431.112 246.079 431.313 246.682C432.749 250.788 434.07 255.038 435.39 259.373L437.357 259.876H437.573C437.581 259.838 437.581 259.799 437.573 259.761C436.108 255.21 434.644 250.616 433.151 246.179V246.122ZM448.757 240.695L446.948 241.341C448.451 245.773 449.934 250.357 451.399 255.095C452.016 254.894 452.605 254.679 453.222 254.449C451.772 249.783 450.25 245.189 448.757 240.695ZM448.757 240.695L446.948 241.341C448.451 245.773 449.934 250.357 451.399 255.095C452.016 254.894 452.605 254.679 453.222 254.449C451.772 249.783 450.25 245.189 448.757 240.695ZM448.757 240.695L446.948 241.341C448.451 245.773 449.934 250.357 451.399 255.095C452.016 254.894 452.605 254.679 453.222 254.449C451.772 249.783 450.25 245.189 448.757 240.695ZM456.165 264.384C455.371 261.647 454.571 258.938 453.767 256.258C453.581 255.655 453.394 255.038 453.222 254.449C451.786 249.726 450.25 245.131 448.757 240.695C448.556 240.078 448.34 239.489 448.125 238.872C446.503 234.134 444.852 229.568 443.272 225.29C443.043 224.673 442.813 224.084 442.598 223.481C442.296 222.663 441.98 221.859 441.679 221.083L439.87 221.686C440.171 222.49 440.473 223.323 440.789 224.141C441.018 224.716 441.219 225.319 441.449 225.936C443.057 230.243 444.679 234.78 446.331 239.518C441.808 241.126 437.199 242.734 432.533 244.284C432.749 244.902 432.935 245.505 433.151 246.122C437.831 244.557 442.425 242.949 446.948 241.341C448.451 245.773 449.934 250.357 451.399 255.095C451.6 255.712 451.786 256.301 451.958 256.918C452.662 259.216 453.394 261.527 454.026 263.882L456.165 264.384ZM473.393 264.499C472.101 259.761 470.737 255.095 469.302 250.544C474.025 248.749 478.605 246.969 482.998 245.203C482.797 244.6 482.596 243.997 482.41 243.408C478.031 245.146 473.451 246.926 468.742 248.721C467.306 243.983 465.727 239.374 464.205 234.952C463.975 234.335 463.774 233.732 463.573 233.129C461.922 228.362 460.257 223.811 458.62 219.533C458.39 218.915 458.161 218.327 457.96 217.724C457.629 216.891 457.299 216.087 456.998 215.254C456.423 215.541 455.892 215.771 455.375 216.015C455.375 216.015 455.304 216.015 455.261 216.015C455.591 216.819 455.892 217.623 456.194 218.442L456.883 220.251C458.491 224.558 460.156 229.066 461.822 233.832C457.381 235.526 452.82 237.216 448.139 238.9C448.355 239.518 448.57 240.106 448.771 240.724C453.437 239.03 458.017 237.35 462.453 235.67C463.99 240.092 465.511 244.701 466.99 249.438C467.177 250.041 467.378 250.63 467.564 251.247C468.981 255.794 470.34 260.441 471.642 265.188C471.814 265.805 471.986 266.423 472.144 267.026C472.144 267.198 472.216 267.385 472.274 267.557L474.341 267.873C474.212 267.37 474.068 266.853 473.939 266.437L473.393 264.499ZM484.764 244.5C484.578 243.882 484.377 243.294 484.19 242.676C482.649 237.938 481.103 233.339 479.553 228.879C479.352 228.291 479.136 227.673 478.921 227.085C477.227 222.289 475.518 217.709 473.896 213.46C473.666 212.842 473.437 212.282 473.207 211.679C472.805 210.646 472.403 209.641 472.015 208.636L470.278 209.425C470.666 210.402 471.039 211.392 471.441 212.412L472.116 214.192C473.767 218.499 475.447 223.007 477.141 227.788C477.356 228.391 477.571 228.994 477.772 229.611C479.352 234.033 480.897 238.632 482.41 243.408C482.596 243.997 482.797 244.6 482.998 245.203C484.434 249.74 485.87 254.406 487.176 259.158C487.262 259.517 487.363 259.876 487.478 260.264C487.664 259.804 487.865 259.302 488.052 258.828C488.239 258.354 488.44 257.866 488.626 257.392C487.406 253.028 486.128 248.749 484.793 244.557L484.764 244.5ZM494.814 222.533C494.584 221.945 494.369 221.327 494.154 220.739C492.416 215.915 490.694 211.364 489.043 207.128L488.353 205.362C487.822 204.042 487.32 202.764 486.832 201.529L485.109 202.376C485.597 203.582 486.099 204.831 486.544 206.109C486.774 206.683 487.004 207.286 487.234 207.875C488.87 212.182 490.593 216.676 492.359 221.5C492.546 222.088 492.761 222.691 492.991 223.28C494.125 226.438 495.245 229.712 496.379 233.071C496.681 231.966 496.982 230.875 497.269 229.769C496.523 227.357 495.676 224.902 494.843 222.591L494.814 222.533ZM503.357 198.744C502.825 197.409 501.921 195.47 501.404 194.121C500.789 194.309 500.189 194.544 499.609 194.824C500.198 196.26 501.045 198.141 501.619 199.533C501.849 200.108 502.079 200.696 502.308 201.314C502.538 201.931 502.825 202.591 503.098 203.266C503.213 202.405 503.285 201.601 503.357 200.854C503.428 200.108 503.457 199.591 503.471 199.031C503.471 198.974 503.428 198.902 503.385 198.801L503.357 198.744ZM393.726 239.259C389.706 240.379 385.677 241.446 381.638 242.461C381.753 242.561 381.882 242.648 382.04 242.762L382.571 243.093C383.033 243.372 383.512 243.622 384.007 243.839C387.462 242.968 390.917 242.049 394.373 241.083C394.172 240.437 393.956 239.834 393.726 239.259ZM503.385 198.83C502.811 199.103 502.237 199.376 501.648 199.62C497.585 201.443 493.177 203.381 488.382 205.449C487.808 205.678 487.219 205.937 486.631 206.195C482.395 208.004 477.945 209.856 473.236 211.766C472.661 212.024 472.073 212.254 471.47 212.498C467.162 214.235 462.654 216.03 457.988 217.81L456.179 218.499C451.786 220.203 447.259 221.892 442.598 223.567L440.789 224.227C436.309 225.835 431.715 227.443 427.063 229.008L425.24 229.597C420.703 231.133 416.08 232.626 411.414 234.076L409.548 234.636C404.939 236.072 400.273 237.422 395.593 238.771C395.794 239.36 396.009 239.977 396.239 240.566C400.948 239.245 405.609 237.867 410.223 236.431C410.84 236.259 411.443 236.072 412.06 235.871C416.76 234.426 421.378 232.942 425.915 231.42C427.508 235.727 429.116 240.264 430.696 244.988C431.313 244.801 431.916 244.586 432.533 244.37C430.925 239.647 429.303 235.096 427.738 230.789C432.375 229.224 436.97 227.63 441.449 226.022C443.057 230.329 444.679 234.866 446.331 239.604C441.808 241.212 437.199 242.82 432.533 244.37C432.749 244.988 432.935 245.591 433.151 246.208C437.831 244.643 442.425 243.035 446.948 241.427L448.757 240.781C453.423 239.087 458.003 237.407 462.439 235.727C463.042 235.469 463.631 235.268 464.234 235.038C468.914 233.244 473.451 231.463 477.801 229.697C477.6 229.08 477.385 228.477 477.169 227.874C472.814 229.635 468.292 231.416 463.602 233.215C461.951 228.448 460.286 223.897 458.649 219.619C463.3 217.81 467.823 216.03 472.144 214.278C473.795 218.585 475.475 223.093 477.169 227.874L478.95 227.171C477.256 222.375 475.547 217.796 473.925 213.546C478.634 211.651 483.113 209.784 487.32 207.961L489.071 207.214C493.867 205.161 498.303 203.209 502.337 201.472L503.385 201.012C503.385 200.366 503.486 199.749 503.5 199.189V198.887L503.385 198.83ZM461.75 233.89C457.309 235.584 452.748 237.273 448.068 238.958C446.445 234.22 444.794 229.654 443.215 225.376C447.867 223.682 452.399 221.993 456.811 220.308C458.477 224.543 460.142 229.095 461.807 233.861L461.75 233.89ZM494.125 220.825L492.388 221.586C488.081 223.38 483.63 225.261 478.892 227.171L477.112 227.874C472.757 229.635 468.235 231.416 463.545 233.215L461.779 233.89C457.338 235.584 452.777 237.273 448.096 238.958C447.508 239.187 446.89 239.403 446.302 239.604C441.779 241.212 437.171 242.82 432.505 244.37C431.887 244.586 431.284 244.801 430.667 244.988C426.101 246.51 421.474 247.988 416.784 249.424C416.166 249.596 415.549 249.797 414.946 249.984L408.098 252.008L408.988 252.281C409.835 252.511 410.668 252.755 411.515 253.013L415.549 251.807L417.372 251.233C422.053 249.797 426.704 248.362 431.284 246.782L433.122 246.194C437.802 244.629 442.397 243.021 446.919 241.413L448.728 240.767C453.394 239.073 457.974 237.393 462.41 235.713C463.013 235.455 463.602 235.254 464.205 235.024C468.885 233.229 473.422 231.449 477.772 229.683C478.375 229.439 478.964 229.209 479.553 228.951C484.29 227.037 488.789 225.17 493.048 223.352L494.814 222.605C496.494 221.902 498.131 221.169 499.724 220.495C499.911 219.734 500.083 218.944 500.284 218.183C498.322 219.035 496.288 219.906 494.182 220.796L494.125 220.825ZM484.161 242.762L482.381 243.495C478.002 245.232 473.422 247.012 468.713 248.807C467.277 244.069 465.698 239.46 464.176 235.038C463.573 235.268 462.985 235.469 462.382 235.727C463.918 240.149 465.44 244.758 466.918 249.496C462.439 251.19 457.854 252.87 453.164 254.535C452.547 254.765 451.958 254.98 451.341 255.181C446.804 256.789 442.181 258.373 437.472 259.933H437.3H437.515L440.731 260.737C444.507 259.474 448.226 258.182 451.901 256.89C452.504 256.674 453.121 256.459 453.71 256.229C458.419 254.578 463.013 252.884 467.493 251.19L469.273 250.515C473.996 248.721 478.576 246.94 482.97 245.174L484.735 244.471C487.98 243.164 491.167 241.872 494.211 240.609L494.9 238.254C491.512 239.776 487.923 241.241 484.219 242.734L484.161 242.762ZM487.147 259.244C482.711 260.996 478.088 262.805 473.365 264.585L471.57 265.245L467.421 266.782L471.125 267.442L472.044 267.083C472.633 266.882 473.25 266.652 473.839 266.423C478.361 264.714 482.74 263.034 486.99 261.34C487.119 261.024 487.277 260.694 487.406 260.35C487.535 260.005 487.794 259.388 487.98 258.914L487.147 259.244Z" fill="#37474F"/>
<path opacity="0.1" d="M495.331 237.034C490.765 252.74 485.496 267.04 483.056 268.189C477.227 270.902 414.257 254.865 390.381 246.337C414.343 253.401 475.389 263.077 481.003 260.321C484.865 258.426 492.919 241.901 495.331 237.034Z" fill="black"/>
<path d="M382.571 363.476C382.571 363.476 427.537 393.855 453.207 399.053C478.878 404.25 529.773 364.438 529.773 364.438C529.773 364.438 549.557 395.334 552.601 399.053C555.645 402.771 571.768 404.795 574.739 401.795C577.711 398.794 577.496 384.566 574.739 376.67C571.983 368.774 542.278 334.676 530.405 335.738C518.532 336.801 484.003 354.546 481.433 354.187C477.413 353.627 455.246 326.622 438.994 305.833" fill="#FFC727"/>
<path d="M382.571 363.476C382.571 363.476 427.537 393.855 453.207 399.053C478.878 404.25 529.773 364.438 529.773 364.438C529.773 364.438 549.557 395.334 552.601 399.053C555.645 402.771 571.768 404.795 574.739 401.795C577.711 398.794 577.496 384.566 574.739 376.67C571.983 368.774 542.278 334.676 530.405 335.738C518.532 336.801 484.003 354.546 481.433 354.187C477.413 353.627 455.246 326.622 438.994 305.833" fill="#DD3312"/>
<path opacity="0.1" d="M574.74 401.795C571.768 404.853 555.645 402.771 552.601 399.053C549.557 395.334 529.773 364.438 529.773 364.438C529.773 364.438 478.863 404.236 453.193 399.053C436.568 395.693 411.845 381.738 396.512 372.349C405.341 377.086 446.89 387.136 458.505 388.572C470.594 390.008 529.773 362.141 529.773 362.141C529.773 362.141 554.956 393.726 557.497 395.162C560.038 396.598 569.959 400.402 572.931 399.469C574.754 398.895 576.477 392.85 576.807 388.615C577.108 394.444 576.462 400.058 574.74 401.795Z" fill="black"/>
<path d="M562.263 389.204C566.786 392.075 571.696 397.818 569.815 403.561C569.499 397.818 565.407 393.769 562.263 389.204Z" fill="#263238"/>
<path d="M570.964 384.265C574.639 388.4 578.515 395.822 575.084 401.048C576.391 395.104 572.945 389.735 570.964 384.265Z" fill="#263238"/>
<path d="M392.965 371.344C409.907 379.786 426.819 388.572 444.55 395.219L448.986 396.655C449.747 396.827 451.614 397.344 452.332 397.516C475.303 400.962 510.233 376.412 529.773 364.409C514.699 376.024 498.891 387.05 481.376 394.76C471.829 398.665 461.061 402.47 450.58 399.943C442.052 397.732 434.012 393.812 426.173 389.993C414.774 384.351 403.748 378.048 392.98 371.329L392.965 371.344Z" fill="#263238"/>
<path d="M525.323 357.575C532.157 367.539 539.235 378.178 545.422 388.543C537.438 379.114 530.684 368.708 525.323 357.575Z" fill="#263238"/>
<path d="M399.541 379.958C405.513 381.121 411.027 382.829 416.956 384.265C410.846 384.654 404.765 383.15 399.541 379.958Z" fill="#263238"/>
<path d="M444.866 313.284L465.856 337.002C470.924 342.357 475.49 348.387 481.405 352.794C483.851 351.978 486.248 351.019 488.583 349.923C498.26 345.759 507.922 341.424 517.958 337.921C521.735 336.472 525.666 335.46 529.673 334.906C531.116 334.838 532.552 335.134 533.851 335.767C538.708 337.987 543.177 340.973 547.088 344.611C542.893 341.465 538.271 338.932 533.363 337.088C532.243 336.617 531.025 336.43 529.816 336.542C526.015 337.326 522.302 338.49 518.733 340.017C510.262 343.362 498.188 348.846 489.717 352.565C487.377 353.498 484.606 354.819 482.108 355.522C481.494 355.693 480.838 355.626 480.27 355.336C478.163 354.013 476.266 352.382 474.642 350.497C470.967 346.607 467.464 342.601 464.162 338.509C457.428 330.34 451.04 321.913 444.866 313.327V313.284Z" fill="#263238"/>
<path d="M453.854 318.137C455.592 319.814 456.98 321.82 457.937 324.038C458.893 326.256 459.399 328.642 459.424 331.058C457.644 326.564 455.505 322.63 453.854 318.137Z" fill="#263238"/>
<path d="M408.371 105.739C422.239 118.316 426.058 169.656 438.52 187.459C450.982 205.262 495.36 199.763 501.835 174.954C508.31 150.145 473.35 108.797 452.992 104.303C432.634 99.8096 408.371 105.739 408.371 105.739Z" fill="#FFC727"/>
<path d="M408.371 105.739C422.239 118.316 426.058 169.656 438.52 187.459C450.982 205.262 495.36 199.763 501.835 174.954C508.31 150.145 473.35 108.797 452.992 104.303C432.634 99.8096 408.371 105.739 408.371 105.739Z" fill="#DD3312"/>
<path d="M246.84 218.068C246.467 222.189 263.221 235.727 270.543 234.78C277.865 233.832 284.642 210.976 281.512 206.138C278.382 201.299 247.314 212.828 246.84 218.068Z" fill="#263238"/>
<path d="M267.758 230.545C273.616 234.852 290.342 250.156 297.334 246.194C303.277 242.604 304.627 234.335 305.79 227.946C305.431 234.737 304.354 243.437 297.965 247.414C289.566 252.051 273.558 236.201 267.816 230.545H267.758Z" fill="#263238"/>
<path d="M277.794 245.002C279.976 246.208 282.445 248.074 284.771 248.534C284.584 248.534 284.584 248.807 284.57 248.735C280.263 242.777 274.434 238.082 269.797 232.31C273.987 235.449 277.889 238.957 281.455 242.791C282.991 244.6 284.857 246.222 285.661 248.534C285.661 251.98 278.784 245.878 277.794 245.002Z" fill="#263238"/>
<path opacity="0.2" d="M353.11 154.553C370.123 144.862 386.132 153.117 394.832 168.307C401.881 180.668 398.967 199.045 382.628 208.349C366.29 217.652 347.741 208.593 341.122 196.978C334.504 185.363 334.69 165.019 353.11 154.553Z" fill="black"/>
<path d="M347.368 173.863C355.766 167.201 365.113 170.303 371.085 177.826C372.374 179.524 373.313 181.462 373.846 183.527C374.38 185.592 374.498 187.742 374.193 189.852C373.889 191.963 373.168 193.992 372.072 195.821C370.977 197.651 369.529 199.245 367.812 200.51C359.743 206.913 348.947 203.553 344.41 197.811C343.011 196.053 341.976 194.033 341.367 191.871C340.757 189.708 340.585 187.446 340.861 185.216C341.136 182.986 341.853 180.833 342.971 178.884C344.088 176.935 345.583 175.228 347.368 173.863Z" fill="#263238"/>
<path d="M347.813 176.088C355.709 169.829 364.481 172.729 370.109 179.821C371.32 181.418 372.202 183.239 372.703 185.179C373.204 187.12 373.315 189.14 373.03 191.123C372.744 193.107 372.067 195.014 371.038 196.734C370.009 198.453 368.649 199.951 367.037 201.141C359.456 207.157 349.306 204.013 345.027 198.6C343.715 196.946 342.746 195.047 342.175 193.015C341.604 190.982 341.443 188.856 341.703 186.761C341.962 184.665 342.636 182.642 343.685 180.81C344.734 178.978 346.137 177.373 347.813 176.088Z" fill="white"/>
<path d="M346.664 179.505C353.11 174.394 360.275 176.778 364.869 182.549C365.858 183.854 366.578 185.341 366.987 186.926C367.396 188.511 367.486 190.162 367.253 191.782C367.019 193.402 366.466 194.959 365.625 196.364C364.785 197.769 363.674 198.992 362.356 199.964C356.168 204.874 347.884 202.29 344.396 197.897C343.314 196.55 342.513 195 342.04 193.338C341.567 191.676 341.433 189.936 341.644 188.222C341.856 186.507 342.409 184.852 343.271 183.355C344.134 181.858 345.287 180.549 346.664 179.505Z" fill="#263238"/>
<path d="M41.9799 360.461C43.0997 350.612 47.7227 322.961 49.4455 320.577C51.1683 318.194 71.0671 327.569 79.5952 346.161L41.9799 360.461Z" fill="#FFC727"/>
<path opacity="0.1" d="M44.1622 359.628C44.9949 351.574 48.4693 329.177 49.704 327.225C50.9387 325.272 66.0566 333.7 72.4311 348.904L44.1622 359.628Z" fill="black"/>
<path d="M52.5897 356.341C52.5897 356.341 53.207 352.364 52.4605 351.273C51.8982 350.51 51.2583 349.807 50.551 349.176C51.7254 349.49 52.8476 349.973 53.8818 350.612C54.4728 351.163 55.0155 351.763 55.5042 352.407C55.5009 350.798 54.8729 349.254 53.7526 348.1C52.3096 346.986 50.7557 346.023 49.1153 345.228C49.1153 345.228 55.217 345.228 57.3849 346.578C59.5528 347.927 62.1515 348.875 63.3862 349.521C64.9046 350.062 66.4797 350.428 68.0809 350.612L52.5897 356.341Z" fill="#FFC727"/>
<path d="M133.692 477.341C130.362 479.768 118.618 501.303 121.001 508.927C123.384 516.55 137.856 543.455 138.933 545.063C140.01 546.671 147.834 568.034 147.475 569.025C147.116 570.016 137.583 573.906 137.583 575.486C137.583 577.065 161.416 576.764 161.775 576.074C162.096 574.312 162.255 572.525 162.249 570.734C162.249 570.375 174.639 541.015 176.792 535.645C178.946 530.276 173.217 504.663 173.217 502.279C173.217 499.896 170.418 450.652 133.692 477.341Z" fill="#FFC727"/>
<g opacity="0.1">
<path d="M133.692 477.341C130.362 479.768 118.618 501.303 121.001 508.927C123.384 516.55 137.856 543.455 138.933 545.063C140.01 546.671 147.834 568.034 147.475 569.025C147.116 570.016 137.583 573.906 137.583 575.486C137.583 577.065 161.416 576.764 161.775 576.074C162.096 574.312 162.255 572.525 162.249 570.734C162.249 570.375 174.639 541.015 176.792 535.645C178.946 530.276 173.217 504.663 173.217 502.279C173.217 499.896 170.418 450.652 133.692 477.341Z" fill="black"/>
</g>
<path d="M93.2344 477.341C89.9036 479.768 83.1845 501.303 85.5965 508.927C88.0084 516.55 108.453 543.139 109.53 544.819C110.606 546.499 120.082 569.226 119.723 570.202C119.364 571.179 111.769 574.438 111.769 575.945C111.769 577.453 136.176 576.778 136.535 576.089C137.014 573.497 137.345 570.88 137.526 568.25C137.526 567.891 150.763 545.681 152.916 540.311C155.07 534.942 161.043 513.535 161.043 511.152C161.043 508.769 129.945 450.652 93.2344 477.341Z" fill="#FFC727"/>
<path d="M275.31 427.939C282.058 434.414 293.472 460.745 294.175 469.445C294.879 478.145 289.767 519.852 290.37 521.647C294.4 529.668 298.827 537.484 303.636 545.063C304.354 546.183 307.427 550.419 307.527 550.907C307.886 552.572 305.618 557.697 304.785 558.774C303.952 559.851 288.26 573.347 287.312 572.399C286.365 571.452 289.882 562.191 289.882 561.588C289.882 560.985 263.236 546.226 261.398 544.704C257.952 541.833 232.799 513.593 230.416 498.446C228.032 483.3 254.42 407.897 275.31 427.939Z" fill="#FFC727"/>
<path opacity="0.1" d="M271.276 425.254L253.731 536.449C245.002 526.227 232.081 509.171 230.416 498.461C228.176 484.333 251.176 417.286 271.276 425.254Z" fill="black"/>
<path d="M110.032 341.668C113.966 334.762 134.583 311.676 138.875 311.303C143.168 310.929 152.701 341.668 154.252 348.229C155.802 354.79 154.252 377.46 154.252 377.46L110.032 341.668Z" fill="#FFC727"/>
<path opacity="0.1" d="M111.238 342.63C114.339 337.16 129.586 318.495 132.989 318.223C136.392 317.95 143.929 342.256 145.149 347.439C146.37 352.622 145.293 370.209 145.293 370.209L111.238 342.63Z" fill="black"/>
<path d="M118.661 348.659C118.661 348.659 122.695 345.645 123.14 343.907C123.416 342.648 123.56 341.363 123.571 340.074C124.321 341.534 124.853 343.097 125.15 344.711C125.113 345.812 124.979 346.908 124.748 347.985C125.582 347.264 126.265 346.386 126.757 345.4C127.25 344.415 127.543 343.341 127.619 342.242C127.461 339.78 127.052 337.341 126.399 334.963C126.399 334.963 131.812 341.237 132.4 344.64C132.989 348.042 133.463 352.981 133.908 354.819C134.353 356.656 135.918 362.557 135.918 362.557L118.661 348.659Z" fill="#FFC727"/>
<path d="M38.405 384.466C37.4574 386.849 25.4837 406.647 26.2159 412.362C26.9481 418.076 40.3719 439.769 69.6315 451.212C69.6315 451.212 72.7326 453.825 73.4504 461.936C74.1683 470.048 70.378 489.344 70.737 495.144C70.9621 497.658 71.6947 500.1 72.8905 502.323C72.8905 502.323 72.589 494.771 73.5366 493.191C73.5366 493.191 75.1733 503.241 76.7238 506.658C77.7658 508.549 79.3113 510.115 81.1889 511.181L78.059 502.882C78.059 502.882 82.9261 512.789 100.14 521.475C114.756 528.84 172.772 526.557 179.606 526.557C186.44 526.557 242.361 518.302 247.701 507.491C249.453 503.916 267.543 471.283 268.921 462.511C269.653 457.773 281.412 438.721 278.023 431.241C274.635 423.761 263.063 410.725 251.506 404.034C242.447 398.794 201.256 397.603 167.604 411.213C166.741 410.345 165.81 409.548 164.818 408.83C163.462 407.91 161.925 407.288 160.31 407.006C160.31 407.006 154.812 373.985 152.902 369.894C150.993 365.802 123.341 343.52 115.574 340.505C107.807 337.49 76.4798 341.61 70.5934 342.888C64.707 344.166 43.4299 356.872 41.9942 360.518C40.5585 364.165 38.405 384.466 38.405 384.466Z" fill="#FFC727"/>
<path opacity="0.1" d="M131.151 526.399C117.971 525.767 105.797 524.36 100.14 521.503C83.4429 513.033 78.3749 503.428 78.0734 502.882L81.1888 511.152C79.3113 510.086 77.7658 508.521 76.7238 506.63C75.1733 503.17 73.5366 493.163 73.5366 493.163C72.589 494.742 72.8905 502.294 72.8905 502.294C71.6947 500.071 70.9621 497.629 70.737 495.115C70.378 489.372 74.1539 470.005 73.4504 461.908C72.7469 453.81 69.6315 451.183 69.6315 451.183C40.3145 439.697 26.9337 418.061 26.2159 412.333C25.498 406.604 37.5005 386.849 38.405 384.466C38.405 384.466 40.5442 364.122 41.9799 360.461C39.9125 371.875 40.9892 385.701 40.7452 386.662C40.5011 387.624 32.3463 407.279 34.2845 412.362C36.2227 417.444 62.9985 447.048 79.5809 450.996C79.5809 450.996 85.0796 466.631 84.4048 473.795C83.73 480.959 84.9935 500.772 86.3861 505.294C87.7787 509.817 93.7799 513.219 99.0777 518.072C104.375 522.925 129.572 526.141 131.151 526.399Z" fill="black"/>
<path d="M197.653 523.528C191.91 524.877 186.081 526.184 180.195 527.131C170.288 528.022 160.382 527.821 150.447 527.734C142.493 527.49 134.511 527.548 126.629 526.112C118.732 524.016 111.855 519.809 105.495 515.1C108.927 517.082 112.415 518.934 116.005 520.556C126.686 526.126 138.803 525.121 150.461 525.61C160.282 525.71 170.202 526.155 180.008 525.839C184.057 525.394 193.475 524.045 197.624 523.528H197.653Z" fill="#263238"/>
<path d="M69.6315 451.212C72.1152 452.016 93.6795 449.905 98.3455 448.34C102.222 447.062 124.805 430.882 142.005 419.124C152.055 412.247 161.2 406.705 161.904 406.705C161.904 406.705 166.972 409.174 167.647 410.395C167.647 410.395 157.597 413.596 154.654 415.405C151.71 417.214 143.01 422.9 143.01 422.9C143.01 422.9 109.156 452.705 101.289 454.485C93.421 456.265 71.7994 456.509 71.7994 456.509C71.0745 455.567 70.4939 454.522 70.0765 453.408C69.8468 452.432 69.6315 451.212 69.6315 451.212Z" fill="#455A64"/>
<path d="M141.617 423.732C146.108 420.042 150.911 416.751 155.974 413.898C159.727 412.536 163.624 411.616 167.589 411.156C163.9 412.591 160.152 413.668 156.52 415.175C151.868 417.717 146.47 421.593 141.603 423.79L141.617 423.732Z" fill="#263238"/>
<path d="M160.31 406.949C158.559 408.011 156.161 409.648 154.395 410.739C153.487 411.41 152.62 412.134 151.797 412.907C150.897 413.685 149.936 414.391 148.925 415.018C150.04 413.232 151.355 411.58 152.845 410.093C155.024 408.416 157.601 407.332 160.325 406.949H160.31Z" fill="#263238"/>
<path d="M56.6097 372.463C50.0629 371.789 46.1147 377.991 45.325 385.614C44.6933 391.788 47.938 398.536 54.212 399.139C60.486 399.742 65.1234 392.764 65.6976 386.964C66.2719 381.164 63.702 373.196 56.6097 372.463Z" fill="#263238"/>
<path d="M57.0691 374.129C50.9243 373.497 47.2059 379.312 46.4737 386.49C45.8707 392.233 48.9144 398.593 54.8151 399.196C60.7158 399.799 65.0803 393.209 65.6403 387.711C66.2002 382.212 63.7451 374.804 57.0691 374.129Z" fill="white"/>
<path d="M59.036 374.316C54.212 373.827 51.3119 378.379 50.7376 383.992C50.2638 388.543 52.6471 393.468 57.2701 393.942C61.893 394.415 65.2956 389.261 65.7407 384.983C66.1858 380.704 64.305 374.847 59.036 374.316Z" fill="#263238"/>
<path d="M105.352 372.004C114.253 370.295 120.053 376.311 121.575 384.265C121.886 386.049 121.839 387.877 121.435 389.642C121.031 391.407 120.278 393.073 119.222 394.544C118.166 396.015 116.827 397.26 115.283 398.207C113.74 399.154 112.023 399.783 110.233 400.058C101.619 401.694 94.8997 394.932 93.7368 388.859C93.3766 386.988 93.3924 385.064 93.7831 383.2C94.1739 381.335 94.9319 379.567 96.0129 377.998C97.094 376.429 98.4764 375.091 100.08 374.062C101.683 373.033 103.475 372.333 105.352 372.004Z" fill="#263238"/>
<path d="M104.806 373.842C113.191 372.234 118.632 377.862 120.068 385.327C120.352 387 120.301 388.713 119.917 390.366C119.533 392.019 118.824 393.579 117.831 394.955C116.838 396.332 115.582 397.496 114.134 398.382C112.687 399.268 111.078 399.857 109.4 400.115C101.36 401.651 95.0434 395.305 93.8948 389.591C93.564 387.84 93.5846 386.039 93.9556 384.296C94.3265 382.552 95.0404 380.899 96.0556 379.434C97.0709 377.968 98.3673 376.719 99.8695 375.759C101.372 374.799 103.05 374.147 104.806 373.842Z" fill="white"/>
<path d="M108.266 374.502C115.1 373.196 119.551 377.79 120.728 383.92C120.959 385.287 120.917 386.685 120.602 388.035C120.288 389.384 119.709 390.658 118.898 391.781C118.087 392.905 117.061 393.856 115.879 394.579C114.697 395.303 113.383 395.784 112.013 395.995C109.204 396.446 106.328 395.805 103.976 394.203C101.624 392.601 99.9743 390.16 99.3649 387.38C99.0918 385.949 99.1062 384.478 99.4073 383.052C99.7083 381.627 100.29 380.276 101.118 379.077C101.947 377.878 103.005 376.857 104.233 376.071C105.46 375.286 106.831 374.752 108.266 374.502Z" fill="#263238"/>
<path d="M80.5715 390.324C80.4854 391.142 75.604 394.186 75.0441 394.186C74.4841 394.186 69.4735 391.199 69.3013 390.395C69.129 389.591 73.7232 389.261 74.9005 389.247C76.0778 389.232 80.6864 389.52 80.5715 390.324Z" fill="#263238"/>
<path d="M65.7407 396.21C66.5591 397.358 67.3774 398.493 68.2819 399.526C68.7062 400.056 69.1877 400.538 69.7176 400.962C69.9195 401.112 70.1571 401.206 70.4067 401.235C70.6406 401.193 70.8588 401.089 71.0385 400.933C71.4895 400.524 71.8639 400.038 72.1439 399.498C72.4629 398.912 72.7365 398.302 72.9623 397.674C73.4477 396.398 73.8411 395.088 74.1396 393.755L74.6995 391.329L75.5322 393.683C76.0914 395.251 76.783 396.769 77.5996 398.22C77.9872 398.933 78.444 399.606 78.9635 400.23C79.4091 400.822 80.0179 401.271 80.7151 401.522H80.9448H81.1889C81.3679 401.507 81.5455 401.478 81.7201 401.436C82.0939 401.34 82.4517 401.19 82.7825 400.991C83.4866 400.568 84.1333 400.057 84.7063 399.469C85.8863 398.248 86.9398 396.911 87.8505 395.478C87.1722 397.071 86.2785 398.564 85.1945 399.914C84.6386 400.615 83.986 401.234 83.2563 401.752C82.4719 402.368 81.4768 402.652 80.4854 402.541C79.5304 402.306 78.6724 401.779 78.0303 401.034C77.4321 400.365 76.894 399.644 76.4223 398.88C75.5217 397.366 74.767 395.77 74.1683 394.114L75.604 394.042C75.2609 395.437 74.8146 396.805 74.2688 398.134C73.9798 398.807 73.6439 399.46 73.2638 400.086C72.8765 400.769 72.3479 401.361 71.7132 401.824C71.3351 402.091 70.8842 402.236 70.4211 402.24C69.9687 402.18 69.5466 401.979 69.2151 401.666C68.6632 401.178 68.1802 400.618 67.7794 400C66.9878 398.8 66.3055 397.532 65.7407 396.21Z" fill="#263238"/>
<path d="M42.9418 391.242C39.3525 391.084 35.7633 391.041 32.174 391.084C28.5848 391.127 24.9955 391.214 21.4063 391.472C19.6117 391.544 17.8314 391.702 16.0368 391.831C14.2421 391.96 12.4619 392.176 10.6816 392.377C7.10672 392.735 3.50311 393.281 0 393.812C1.75155 393.425 3.50311 393.008 5.28338 392.692C7.06365 392.377 8.82956 392.075 10.6098 391.831C14.1847 391.314 17.7883 391.013 21.3632 390.769C24.9381 390.524 28.5417 390.467 32.174 390.539C33.9687 390.539 35.7777 390.654 37.5723 390.754C39.3669 390.855 41.1615 390.998 42.9418 391.242Z" fill="#263238"/>
<path d="M41.5492 393.382C39.9412 393.511 38.3189 393.626 36.7109 393.798C35.1029 393.97 33.4806 394.099 31.8726 394.286C28.6566 394.631 25.4407 395.004 22.2391 395.492C20.6311 395.693 19.0374 395.951 17.4438 396.196L12.6629 397.014L10.2653 397.445L7.88205 397.933C6.28842 398.205 4.72351 398.608 3.12988 398.909C6.231 397.961 9.37518 397.129 12.5481 396.468C15.721 395.808 18.9226 395.248 22.1386 394.774C25.3545 394.3 28.5848 393.956 31.8295 393.726C35.0742 393.496 38.3045 393.338 41.5492 393.382Z" fill="#263238"/>
<path d="M42.5398 395.377C41.2189 395.65 39.8981 395.908 38.5772 396.21C37.2564 396.511 35.9355 396.77 34.6147 397.086C31.9874 397.703 29.36 398.306 26.7614 398.981C24.1628 399.656 21.5355 400.33 18.9369 401.048C16.3382 401.766 13.7396 402.484 11.1266 403.245C12.3901 402.742 13.6535 402.269 14.9313 401.809C16.209 401.35 17.4868 400.919 18.7789 400.517C21.3488 399.67 23.9618 398.952 26.5748 398.277C29.1878 397.603 31.8438 397.028 34.5142 396.54C37.1846 396.052 39.8407 395.621 42.5398 395.377Z" fill="#263238"/>
<path d="M125.681 396.77C127.892 396.483 130.117 396.339 132.343 396.167C134.568 395.995 136.808 395.966 139.048 395.923C143.513 395.837 147.978 395.923 152.443 396.181C156.908 396.44 161.358 396.827 165.795 397.445C168.006 397.732 170.217 398.105 172.413 398.478C173.519 398.651 174.61 398.88 175.701 399.11L178.974 399.799C174.567 399.139 170.159 398.45 165.723 398.005C163.512 397.746 161.287 397.545 159.076 397.344C156.865 397.143 154.625 397 152.4 396.899C147.963 396.598 143.498 396.511 139.048 396.468C134.597 396.425 130.132 396.526 125.681 396.77Z" fill="#263238"/>
<path d="M127.418 399.412C131.438 399.412 135.458 399.584 139.478 399.885C143.498 400.187 147.504 400.646 151.495 401.163C155.486 401.68 159.463 402.398 163.397 403.23C167.331 404.063 171.25 405.025 175.112 406.102C173.131 405.714 171.193 405.212 169.212 404.853L166.254 404.25L163.297 403.719C161.315 403.345 159.334 403.029 157.353 402.699C155.371 402.369 153.39 402.082 151.395 401.824C147.418 401.249 143.426 400.79 139.435 400.388C137.44 400.172 135.43 399.986 133.434 399.814C131.438 399.641 129.385 399.555 127.418 399.412Z" fill="#263238"/>
<path d="M126.198 401.91C129.543 402.225 132.86 402.771 136.148 403.345C139.435 403.92 142.723 404.695 145.996 405.485C149.27 406.274 152.486 407.193 155.687 408.212C157.295 408.715 158.875 409.246 160.468 409.777C162.062 410.308 163.627 410.926 165.192 411.514C161.961 410.596 158.76 409.634 155.529 408.744C152.299 407.853 149.069 406.992 145.81 406.188C142.551 405.384 139.306 404.609 136.047 403.877C134.41 403.503 132.774 403.173 131.123 402.828C129.472 402.484 127.849 402.211 126.198 401.91Z" fill="#263238"/>
<path d="M49.905 364.797C50.2591 363.748 50.8539 362.796 51.6417 362.019C52.4295 361.241 53.3884 360.658 54.4418 360.317C55.4634 359.908 56.5638 359.733 57.6619 359.805C58.7601 359.877 59.8282 360.195 60.7876 360.734C59.862 361.235 58.9026 361.672 57.9162 362.04C55.2761 363.111 52.5774 364.031 49.8332 364.797H49.905Z" fill="#263238"/>
<path d="M120.857 367.037C118.151 366.128 115.501 365.064 112.918 363.849C111.976 363.435 111.065 362.955 110.19 362.414C111.178 361.922 112.264 361.658 113.367 361.643C114.471 361.629 115.564 361.862 116.565 362.327C117.602 362.719 118.532 363.35 119.28 364.168C120.028 364.986 120.574 365.969 120.872 367.037H120.857Z" fill="#263238"/>
<path d="M83.8305 427.336C81.8945 425.415 80.2802 423.194 79.0496 420.76C79.0243 420.719 78.9873 420.687 78.9434 420.667C78.8996 420.647 78.8507 420.64 78.8031 420.648C78.7555 420.655 78.7112 420.677 78.6759 420.71C78.6405 420.743 78.6157 420.785 78.6045 420.832C78.4897 421.406 78.1882 423.058 78.1451 423.316C78.059 423.172 77.9872 423.029 77.9154 422.885C77.657 422.397 77.4416 421.895 77.2263 421.378C76.8193 420.348 76.4976 419.287 76.2644 418.205C76.0322 417.128 75.8929 416.032 75.848 414.931C75.848 413.812 75.848 412.692 75.9341 411.572C75.9341 411.572 75.848 411.572 75.8336 411.572C75.5066 412.692 75.3327 413.851 75.3168 415.018C75.2786 416.136 75.3411 417.256 75.5034 418.363C75.6724 419.474 75.9513 420.566 76.3361 421.622C76.5313 422.174 76.7566 422.716 77.0109 423.244C77.2232 423.77 77.5243 424.256 77.901 424.68C78.1882 424.953 78.6189 424.68 78.6045 424.307C78.5902 423.933 78.8917 421.852 78.9491 421.521C79.4482 422.559 80.0494 423.545 80.7437 424.464C81.582 425.568 82.5456 426.57 83.6151 427.451C83.7731 427.522 83.9166 427.336 83.8305 427.336Z" fill="#263238"/>
<path opacity="0.1" d="M137.669 386.978C141.339 392.962 144.234 399.388 146.283 406.102C147.719 411.845 137.282 419.023 133.104 421.895C135.674 419.54 138.215 417.171 140.555 414.644C142.335 412.505 144.675 410.337 145.049 407.466C144.726 405.4 144.158 403.381 143.355 401.45C141.661 396.755 139.507 391.616 137.727 386.907L137.669 386.978Z" fill="black"/>
<path d="M160.684 456.926C156.735 463.473 147.662 501.576 152.586 510.635C157.511 519.695 201.845 538.287 203.439 540.196C205.032 542.106 212.656 569.47 212.182 570.231C211.708 570.992 203.568 574.452 203.755 576.089C203.898 577.18 223.854 576.419 225.046 576.419C226.238 576.419 227.702 572.241 227.515 572.543C227.329 572.844 249.295 533.563 253.688 525.811C255.856 522.006 247.701 510.09 247.701 507.462C247.701 504.835 266.825 481.476 266.768 469.086C266.768 462.109 255.569 433.797 229.109 429.992C202.649 426.187 169.743 441.908 160.684 456.926Z" fill="#FFC727"/>
<path opacity="0.1" d="M214.35 570.734C210.746 572.5 207.516 573.835 206.612 575.5C206.439 575.816 206.741 576.189 207.344 576.606C205.233 576.534 203.798 576.376 203.755 576.089C203.554 574.452 211.708 571.021 212.182 570.231C212.656 569.442 205.004 542.106 203.439 540.196C201.874 538.287 157.496 519.694 152.586 510.635C149.155 504.318 152.586 483.845 156.233 469.833C155.328 476.652 156.807 503.658 162.521 509.501C168.235 515.344 207.444 533.018 208.966 535.157C210.488 537.296 216.705 569.599 214.35 570.734Z" fill="black"/>
<path d="M176.835 526.859C168.221 523.025 158.559 519.68 152.313 512.186C150.289 509.401 150.461 505.711 150.361 502.452C150.778 489.709 153.201 477.112 157.539 465.124C154.855 478.906 151.883 492.919 152.701 507.003C152.768 508.416 153.214 509.785 153.993 510.965C159.808 518.144 169.025 521.963 176.835 526.758V526.859Z" fill="#263238"/>
<path d="M153.146 469.445C153.653 473.429 153.845 477.447 153.72 481.462C152.812 479.603 152.293 477.579 152.194 475.513C152.095 473.446 152.419 471.382 153.146 469.445Z" fill="#263238"/>
<path d="M260.967 437.702C264.477 445.592 267.194 453.811 269.079 462.238C269.475 463.923 269.529 465.671 269.237 467.378C265.777 480.457 258.01 492.014 251.032 503.428C250.515 504.304 249.022 506.615 248.592 507.477C248.462 507.132 248.692 507.907 248.864 508.324C250.745 513.306 253.415 518.158 254.607 523.442C254.691 524.048 254.57 524.664 254.263 525.193C253.082 527.623 251.689 529.944 250.099 532.128C251.427 529.816 252.597 527.418 253.602 524.949C253.825 524.536 253.886 524.055 253.774 523.6C252.095 518.259 249.151 513.406 246.984 508.18C246.862 507.905 246.807 507.605 246.826 507.304C247.533 505.617 248.393 503.997 249.396 502.466C255.957 490.98 263.652 479.682 267.414 466.961C268.131 461.218 265.978 455.59 264.542 450.049C263.437 445.9 262.159 441.808 260.895 437.702H260.967Z" fill="#263238"/>
<path d="M306.077 347.453C307.729 346.283 309.28 344.977 310.714 343.548C310.556 343.864 307.929 348.99 306.953 349.607C305.976 350.224 302.244 353.699 300.564 354.804C289.207 372.205 274.075 393.568 269.079 408.93C264.772 422.052 269.079 431.341 269.079 431.341L253.085 416.812C250.214 412.878 242.361 400.359 245.232 379.139C248.103 357.92 265.116 331.761 248.85 302.631C232.583 273.501 216.446 281.971 192.972 295.452C192.972 295.452 216.934 256.387 259.302 255.612C286.781 255.095 309.393 315.796 307.426 339.371C307.822 338.691 308.126 337.962 308.331 337.203C308.704 335.25 308.862 325.961 308.862 325.961C308.862 325.961 311.317 334.977 310.599 338.882C310.097 341.754 307.426 344.941 305.273 347.698L306.077 347.453Z" fill="#FFC727"/>
<path d="M246.395 402.297C249.352 408.729 252.296 415.29 252.884 422.397C250.846 415.635 247.974 409.174 246.395 402.297Z" fill="#263238"/>
<path d="M249.984 412.362C250.59 414.453 250.453 416.691 249.596 418.693C249.474 416.575 249.604 414.449 249.984 412.362Z" fill="#263238"/>
<path d="M267.37 416.827L267.643 421.062C267.643 425.369 269.079 429.346 269.438 433.567C266.918 428.368 266.191 422.482 267.37 416.827Z" fill="#263238"/>
<path d="M267.571 424.867C269.014 426.688 270.328 428.606 271.505 430.609C269.579 429.198 268.191 427.173 267.571 424.867Z" fill="#263238"/>
<path opacity="0.1" d="M253.071 416.784C250.199 412.821 242.361 400.316 245.232 379.139C248.103 357.963 265.116 331.761 248.85 302.631C232.583 273.501 216.446 281.971 192.972 295.452C192.972 295.452 210.919 266.193 243.222 257.823C231.507 261.972 219.964 274.678 214.896 280.607C214.896 280.607 234.895 277.736 243.222 284.426C251.549 291.117 263.394 317.132 266.782 330.986C270.17 344.841 249.553 373.827 247.974 388.041C246.438 401.895 252.712 415.994 253.071 416.784Z" fill="black"/>
</svg>
